<svg width="96" height="109" viewBox="187.6 0 96 109" fill="none" xmlns="http://www.w3.org/2000/svg">
<g filter="url(#filter0_ddddii_7_56)">
<ellipse cx="53.0273" cy="53.0104" rx="38.0273" ry="37.9896" fill="url(#paint0_linear_7_56)"/>
</g>
<g clip-path="url(#clip0_7_56)">
<path d="M42.139 61.202C42.7543 61.202 43.2531 60.7037 43.2531 60.089C43.2531 59.4743 42.7543 58.976 42.139 58.976C41.5238 58.976 41.025 59.4743 41.025 60.089C41.025 60.7037 41.5238 61.202 42.139 61.202Z" fill="#F4F4F4"/>
<path d="M66.7973 52.2981H61.1526V35.455C61.1526 33.6139 59.6533 32.1161 57.8104 32.1161C55.9675 32.1161 54.4682 33.6139 54.4682 35.455V52.2981H48.8235C46.9806 52.2981 45.4812 53.796 45.4812 55.6371V57.863V63.6189C45.4812 65.3517 44.8058 66.9806 43.5794 68.2058C43.2608 68.5241 43.1655 69.0028 43.3379 69.4187C43.5103 69.8346 43.9165 70.1058 44.3672 70.1058H64.4949C65.9826 70.1058 67.3914 69.5301 68.4618 68.4848C69.5438 67.4283 70.1396 66.0277 70.1396 64.5409V57.863V55.6371C70.1396 53.796 68.6402 52.2981 66.7973 52.2981ZM56.6963 35.455C56.6963 34.8413 57.1961 34.342 57.8104 34.342C58.4247 34.342 58.9245 34.8413 58.9245 35.455V47.8462H56.6963V35.455ZM56.6963 50.0722H58.9245V52.2981H56.6963V50.0722ZM52.24 63.6189C52.24 65.2026 51.6743 66.6986 50.6408 67.8798H46.5998C47.3241 66.5931 47.7094 65.1355 47.7094 63.6189V58.976H52.24V63.6189ZM61.1526 63.6189C61.1526 65.2026 60.5869 66.6986 59.5534 67.8798H53.3582C54.0825 66.593 54.4682 65.1356 54.4682 63.6189V58.976H61.1526V63.6189ZM67.9114 64.5409C67.9114 66.3508 66.3469 67.8798 64.4949 67.8798H62.2709C62.9952 66.593 63.3808 65.1356 63.3808 63.6189V58.976H67.9114V64.5409ZM67.9114 56.75H47.7094V55.6371C47.7094 55.0234 48.2092 54.5241 48.8235 54.5241C54.4926 54.5241 61.1524 54.5241 66.7973 54.5241C67.4116 54.5241 67.9114 55.0234 67.9114 55.6371V56.75Z" fill="#F4F4F4"/>
<path d="M39.9109 50.0721C38.068 50.0721 36.5686 51.57 36.5686 53.4111C36.5686 55.2522 38.068 56.75 39.9109 56.75C41.7538 56.75 43.2531 55.2522 43.2531 53.4111C43.2531 51.57 41.7538 50.0721 39.9109 50.0721ZM39.9109 54.5241C39.2966 54.5241 38.7968 54.0248 38.7968 53.4111C38.7968 52.7974 39.2966 52.2981 39.9109 52.2981C40.5252 52.2981 41.025 52.7974 41.025 53.4111C41.025 54.0248 40.5252 54.5241 39.9109 54.5241Z" fill="#F4F4F4"/>
<path d="M37.6827 61.202H36.5686V60.089C36.5686 59.4743 36.0698 58.976 35.4545 58.976C34.8393 58.976 34.3405 59.4743 34.3405 60.089V61.202H33.2264C32.6111 61.202 32.1123 61.7003 32.1123 62.315C32.1123 62.9296 32.6111 63.4279 33.2264 63.4279H34.3405V64.5409C34.3405 65.1556 34.8393 65.6539 35.4545 65.6539C36.0698 65.6539 36.5686 65.1556 36.5686 64.5409V63.4279H37.6827C38.298 63.4279 38.7968 62.9296 38.7968 62.315C38.7968 61.7003 38.298 61.202 37.6827 61.202Z" fill="#F4F4F4"/>
</g>
<g filter="url(#filter1_ddddii_7_56)">
<ellipse cx="144.293" cy="53.0104" rx="38.0273" ry="37.9896" fill="url(#paint1_linear_7_56)"/>
</g>
<g clip-path="url(#clip1_7_56)">
<path d="M144.293 37.7628C144.293 37.7628 144.293 37.7628 144.293 37.7628C139.501 37.7628 135.006 39.895 131.634 43.7667C131.269 44.1862 131.269 44.8105 131.634 45.23L137.715 52.2123C137.927 52.4557 138.234 52.5954 138.556 52.5954H150.03C150.352 52.5954 150.659 52.4557 150.871 52.2123L156.952 45.23C157.317 44.8105 157.317 44.1861 156.952 43.7666C153.58 39.895 149.084 37.7628 144.293 37.7628V37.7628ZM143.637 50.3659L144.293 48.9471L144.949 50.3659H143.637ZM149.521 50.3659H147.407L145.306 45.8203C145.124 45.4255 144.728 45.1728 144.293 45.1728C143.858 45.1728 143.462 45.4255 143.28 45.8203L141.179 50.3659H139.065L133.973 44.5189C134.609 43.8664 135.284 43.2803 135.991 42.7627L136.952 43.914C137.173 44.1785 137.49 44.315 137.81 44.315C138.062 44.315 138.315 44.2302 138.524 44.0564C138.997 43.6622 139.061 42.9592 138.666 42.4864L137.903 41.5723C139.556 40.7107 141.336 40.1886 143.177 40.0383V41.4112C143.177 42.0269 143.677 42.526 144.293 42.526C144.909 42.526 145.409 42.0269 145.409 41.4112V40.0383C147.25 40.1886 149.03 40.7107 150.682 41.5723L149.92 42.4864C149.525 42.9592 149.589 43.6622 150.062 44.0564C150.271 44.2302 150.524 44.315 150.776 44.315C151.096 44.315 151.413 44.1785 151.634 43.914L152.595 42.7627C153.302 43.2803 153.977 43.8664 154.613 44.5189L149.521 50.3659Z" fill="#F4F4F4"/>
<path d="M159.943 35.7596C158.398 34.0477 156.189 33.0659 153.882 33.0659H134.704C132.397 33.0659 130.188 34.0477 128.643 35.7595C127.098 37.4713 126.349 39.7678 126.587 42.0602L128.843 63.7463C129.277 67.9131 132.766 71.0554 136.959 71.0554H151.627C155.82 71.0554 159.309 67.9132 159.743 63.7463L161.998 42.0603C162.237 39.7679 161.488 37.4714 159.943 35.7596V35.7596ZM159.779 41.8297L157.523 63.5158C157.208 66.543 154.673 68.8259 151.627 68.8259H145.409V62.1394C145.409 61.5237 144.909 61.0246 144.293 61.0246C143.677 61.0246 143.177 61.5237 143.177 62.1394V68.8259H136.959C133.913 68.8259 131.378 66.5431 131.063 63.5158L128.807 41.8297C128.634 40.1643 129.178 38.496 130.301 37.2523C131.423 36.0087 133.028 35.2955 134.704 35.2955H153.882C155.558 35.2955 157.163 36.0087 158.285 37.2524C159.408 38.496 159.952 40.1644 159.779 41.8297V41.8297Z" fill="#F4F4F4"/>
</g>
<g filter="url(#filter2_ddddii_7_56)">
<ellipse cx="235.558" cy="53.0104" rx="38.0273" ry="37.9896" fill="url(#paint2_linear_7_56)"/>
</g>
<g clip-path="url(#clip2_7_56)">
<path d="M250.121 34.4904H233.414C231.484 34.4904 229.914 36.0593 229.914 37.9876V48.694L226.812 47.1529C226.707 47.1007 226.601 47.0514 226.493 47.0048C227.404 46.055 227.965 44.7681 227.965 43.3522C227.965 40.4379 225.592 38.0667 222.675 38.0667C219.757 38.0667 217.384 40.4379 217.384 43.3522C217.384 44.9359 218.086 46.3584 219.194 47.3279C217.153 48.4751 215.594 50.713 215.594 53.4853V57.0616C215.594 58.6012 216.595 59.9116 217.981 60.3773V66.5987C217.981 67.2132 218.479 67.7117 219.095 67.7117H226.254C226.87 67.7117 227.369 67.2132 227.369 66.5987V54.0936L230.935 55.875C232.3 56.5567 234.152 56.1503 234.989 54.5982H238.984L234.754 66.2182C234.544 66.7958 234.842 67.4346 235.42 67.6445C236.081 67.8847 236.669 67.4706 236.848 66.979L241.355 54.5982H242.136L246.688 66.9825C246.861 67.4523 247.445 67.8905 248.118 67.6433C248.696 67.4314 248.992 66.792 248.78 66.215L244.509 54.5982H250.121C252.014 54.5982 253.621 53.0728 253.621 51.1011V37.9876C253.621 36.0155 252.014 34.4904 250.121 34.4904V34.4904ZM219.612 43.3522C219.612 41.6651 220.986 40.2927 222.675 40.2927C224.363 40.2927 225.737 41.6651 225.737 43.3522C225.737 45.0391 224.363 46.4115 222.675 46.4115C220.986 46.4115 219.612 45.0391 219.612 43.3522ZM233.085 53.4082C233.082 53.4163 233.079 53.4247 233.077 53.4331C233.001 53.645 232.829 53.8235 232.619 53.9099C232.396 54.0003 232.146 53.9907 231.932 53.8841C229.813 52.8253 226.752 51.2976 226.752 51.2976C226.013 50.9283 225.14 51.4663 225.14 52.2932V65.4857H220.209V59.4458C220.209 58.8313 219.71 58.3328 219.095 58.3328C218.393 58.3328 217.822 57.7627 217.822 57.0616V53.4853C217.822 50.7657 220.039 48.6377 222.675 48.6377H223.659C224.406 48.6377 225.152 48.8128 225.818 49.1452C225.818 49.1452 231.344 51.8906 232.752 52.5908C233.053 52.7404 233.196 53.0917 233.085 53.4082ZM251.393 51.1011C251.393 51.441 251.261 51.7602 251.021 52.0001C250.785 52.2366 250.456 52.3723 250.121 52.3723H235.232C235.23 52.3662 235.228 52.3601 235.226 52.3543L237.991 46.8303C238.266 46.2805 238.043 45.6121 237.493 45.337C236.943 45.0623 236.273 45.2849 235.998 45.8347L233.64 50.546C233.2 50.3272 232.689 50.073 232.142 49.8011V37.9876C232.142 37.2868 232.713 36.7164 233.414 36.7164H250.121C250.456 36.7164 250.785 36.852 251.021 37.0891C251.261 37.3285 251.393 37.6476 251.393 37.9876V51.1011Z" fill="#F4F4F4"/>
<path d="M247.734 39.2589H235.801C235.186 39.2589 234.687 39.7571 234.687 40.3718C234.687 40.9866 235.186 41.4848 235.801 41.4848H247.734C248.349 41.4848 248.848 40.9866 248.848 40.3718C248.848 39.7571 248.35 39.2589 247.734 39.2589Z" fill="#F4F4F4"/>
<path d="M247.734 43.4314H241.767C241.152 43.4314 240.653 43.9296 240.653 44.5444C240.653 45.1591 241.152 45.6574 241.767 45.6574H247.734C248.349 45.6574 248.848 45.1591 248.848 44.5444C248.848 43.9296 248.35 43.4314 247.734 43.4314Z" fill="#F4F4F4"/>
<path d="M247.734 47.6039H241.767C241.152 47.6039 240.653 48.1021 240.653 48.7169C240.653 49.3313 241.152 49.8298 241.767 49.8298H247.734C248.349 49.8298 248.848 49.3313 248.848 48.7169C248.848 48.1021 248.35 47.6039 247.734 47.6039Z" fill="#F4F4F4"/>
</g>
<g filter="url(#filter3_ddddii_7_56)">
<ellipse cx="326.973" cy="52.9896" rx="38.0273" ry="37.9896" fill="url(#paint3_linear_7_56)"/>
</g>
<g clip-path="url(#clip3_7_56)">
<path d="M305.909 57.7888C305.909 64.556 311.463 70.1058 318.238 70.1058C324.995 70.1058 330.493 64.5804 330.493 57.7888C330.493 57.3944 330.474 57.0044 330.437 56.6194C330.825 56.6562 331.216 56.6758 331.607 56.6758C338.405 56.6758 343.936 51.1837 343.936 44.4331C343.936 37.6659 338.382 32.1161 331.607 32.1161C324.85 32.1161 319.352 37.6414 319.352 44.4331C319.352 44.8239 319.372 45.2142 319.409 45.6022C319.023 45.5656 318.633 45.546 318.238 45.546C311.44 45.546 305.909 51.0382 305.909 57.7888ZM329.991 54.3197C329.477 52.5856 328.589 51.0109 327.419 49.6894C327.441 49.6687 327.463 49.648 327.483 49.6252C328.533 48.4474 330.036 47.772 331.607 47.772C333.178 47.772 334.681 48.4474 335.731 49.6252C336.14 50.0842 336.844 50.125 337.304 49.7162C337.763 49.3075 337.804 48.6039 337.395 48.1449C335.923 46.4933 333.813 45.546 331.607 45.546C329.401 45.546 327.291 46.4933 325.819 48.1448C325.814 48.151 325.809 48.1577 325.804 48.164C324.6 47.2177 323.215 46.4922 321.711 46.0474C321.625 45.5158 321.58 44.9753 321.58 44.4331C321.58 38.8688 326.078 34.342 331.607 34.342C337.177 34.342 341.708 38.8688 341.708 44.4331C341.708 49.9563 337.177 54.4499 331.607 54.4499C331.064 54.4499 330.523 54.4056 329.991 54.3197V54.3197ZM308.137 57.7888C308.137 52.2655 312.668 47.772 318.238 47.772C323.767 47.772 328.265 52.2655 328.265 57.7888C328.265 63.3531 323.767 67.8798 318.238 67.8798C312.668 67.8798 308.137 63.3531 308.137 57.7888Z" fill="#F4F4F4"/>
<path d="M311.053 59.373C310.844 59.6685 310.792 60.0469 310.913 60.3876C312.018 63.4931 314.962 65.5797 318.238 65.5797C321.514 65.5797 324.458 63.4931 325.563 60.3875C325.684 60.0468 325.632 59.6684 325.424 59.373C325.215 59.0775 324.875 58.9018 324.513 58.9018H311.963C311.601 58.9018 311.262 59.0775 311.053 59.373V59.373ZM313.811 61.1278H322.665C321.633 62.502 320.003 63.3537 318.238 63.3537C316.473 63.3537 314.843 62.502 313.811 61.1278Z" fill="#F4F4F4"/>
<path d="M323.809 55.5629C323.809 54.9492 323.309 54.4499 322.694 54.4499C322.08 54.4499 321.58 54.9492 321.58 55.5629C321.58 56.1775 321.082 56.6759 320.466 56.6759C319.851 56.6759 319.352 56.1775 319.352 55.5629C319.352 53.7218 320.852 52.2239 322.694 52.2239C324.537 52.2239 326.037 53.7218 326.037 55.5629C326.037 56.1775 325.538 56.6759 324.923 56.6759C324.307 56.6759 323.809 56.1775 323.809 55.5629Z" fill="#F4F4F4"/>
<path d="M313.782 52.2239C315.625 52.2239 317.124 53.7218 317.124 55.5629C317.124 56.1775 316.625 56.6759 316.01 56.6759C315.395 56.6759 314.896 56.1775 314.896 55.5629C314.896 54.9492 314.396 54.4499 313.782 54.4499C313.168 54.4499 312.668 54.9492 312.668 55.5629C312.668 56.1775 312.169 56.6759 311.554 56.6759C310.938 56.6759 310.44 56.1775 310.44 55.5629C310.44 53.7218 311.939 52.2239 313.782 52.2239Z" fill="#F4F4F4"/>
<path d="M332.721 41.0941C332.721 40.4795 333.22 39.9811 333.835 39.9811C334.451 39.9811 334.949 40.4795 334.949 41.0941C334.949 41.7078 335.449 42.2071 336.063 42.2071C336.678 42.2071 337.178 41.7078 337.178 41.0941C337.178 40.4795 337.676 39.9811 338.292 39.9811C338.907 39.9811 339.406 40.4795 339.406 41.0941C339.406 42.9352 337.906 44.4331 336.063 44.4331C334.221 44.4331 332.721 42.9352 332.721 41.0941Z" fill="#F4F4F4"/>
<path d="M327.151 44.4331C325.308 44.4331 323.809 42.9352 323.809 41.0941C323.809 40.4795 324.307 39.9811 324.923 39.9811C325.538 39.9811 326.037 40.4795 326.037 41.0941C326.037 41.7078 326.536 42.2071 327.151 42.2071C327.765 42.2071 328.265 41.7078 328.265 41.0941C328.265 40.4795 328.764 39.9811 329.379 39.9811C329.994 39.9811 330.493 40.4795 330.493 41.0941C330.493 42.9352 328.994 44.4331 327.151 44.4331Z" fill="#F4F4F4"/>
</g>
<defs>
<filter id="filter0_ddddii_7_56" x="0" y="0.020752" width="109.055" height="108.979" filterUnits="userSpaceOnUse" color-interpolation-filters="sRGB">
<feFlood flood-opacity="0" result="BackgroundImageFix"/>
<feColorMatrix in="SourceAlpha" type="matrix" values="0 0 0 0 0 0 0 0 0 0 0 0 0 0 0 0 0 0 127 0" result="hardAlpha"/>
<feOffset dx="5" dy="5"/>
<feGaussianBlur stdDeviation="6.5"/>
<feColorMatrix type="matrix" values="0 0 0 0 0.517647 0 0 0 0 0.486275 0 0 0 0 0.811765 0 0 0 0.9 0"/>
<feBlend mode="normal" in2="BackgroundImageFix" result="effect1_dropShadow_7_56"/>
<feColorMatrix in="SourceAlpha" type="matrix" values="0 0 0 0 0 0 0 0 0 0 0 0 0 0 0 0 0 0 127 0" result="hardAlpha"/>
<feOffset dx="-5" dy="-5"/>
<feGaussianBlur stdDeviation="5"/>
<feColorMatrix type="matrix" values="0 0 0 0 0.713726 0 0 0 0 0.67451 0 0 0 0 1 0 0 0 0.9 0"/>
<feBlend mode="normal" in2="effect1_dropShadow_7_56" result="effect2_dropShadow_7_56"/>
<feColorMatrix in="SourceAlpha" type="matrix" values="0 0 0 0 0 0 0 0 0 0 0 0 0 0 0 0 0 0 127 0" result="hardAlpha"/>
<feOffset dx="5" dy="-5"/>
<feGaussianBlur stdDeviation="5"/>
<feColorMatrix type="matrix" values="0 0 0 0 0.517647 0 0 0 0 0.486275 0 0 0 0 0.811765 0 0 0 0.2 0"/>
<feBlend mode="normal" in2="effect2_dropShadow_7_56" result="effect3_dropShadow_7_56"/>
<feColorMatrix in="SourceAlpha" type="matrix" values="0 0 0 0 0 0 0 0 0 0 0 0 0 0 0 0 0 0 127 0" result="hardAlpha"/>
<feOffset dx="-5" dy="5"/>
<feGaussianBlur stdDeviation="5"/>
<feColorMatrix type="matrix" values="0 0 0 0 0.517647 0 0 0 0 0.486275 0 0 0 0 0.811765 0 0 0 0.2 0"/>
<feBlend mode="normal" in2="effect3_dropShadow_7_56" result="effect4_dropShadow_7_56"/>
<feBlend mode="normal" in="SourceGraphic" in2="effect4_dropShadow_7_56" result="shape"/>
<feColorMatrix in="SourceAlpha" type="matrix" values="0 0 0 0 0 0 0 0 0 0 0 0 0 0 0 0 0 0 127 0" result="hardAlpha"/>
<feOffset dx="-1" dy="-1"/>
<feGaussianBlur stdDeviation="1"/>
<feComposite in2="hardAlpha" operator="arithmetic" k2="-1" k3="1"/>
<feColorMatrix type="matrix" values="0 0 0 0 0.517647 0 0 0 0 0.486275 0 0 0 0 0.811765 0 0 0 0.5 0"/>
<feBlend mode="normal" in2="shape" result="effect5_innerShadow_7_56"/>
<feColorMatrix in="SourceAlpha" type="matrix" values="0 0 0 0 0 0 0 0 0 0 0 0 0 0 0 0 0 0 127 0" result="hardAlpha"/>
<feOffset dx="1" dy="1"/>
<feGaussianBlur stdDeviation="1"/>
<feComposite in2="hardAlpha" operator="arithmetic" k2="-1" k3="1"/>
<feColorMatrix type="matrix" values="0 0 0 0 0.713726 0 0 0 0 0.67451 0 0 0 0 1 0 0 0 0.3 0"/>
<feBlend mode="normal" in2="effect5_innerShadow_7_56" result="effect6_innerShadow_7_56"/>
</filter>
<filter id="filter1_ddddii_7_56" x="91.2656" y="0.020752" width="109.055" height="108.979" filterUnits="userSpaceOnUse" color-interpolation-filters="sRGB">
<feFlood flood-opacity="0" result="BackgroundImageFix"/>
<feColorMatrix in="SourceAlpha" type="matrix" values="0 0 0 0 0 0 0 0 0 0 0 0 0 0 0 0 0 0 127 0" result="hardAlpha"/>
<feOffset dx="5" dy="5"/>
<feGaussianBlur stdDeviation="6.5"/>
<feColorMatrix type="matrix" values="0 0 0 0 0.517647 0 0 0 0 0.486275 0 0 0 0 0.811765 0 0 0 0.9 0"/>
<feBlend mode="normal" in2="BackgroundImageFix" result="effect1_dropShadow_7_56"/>
<feColorMatrix in="SourceAlpha" type="matrix" values="0 0 0 0 0 0 0 0 0 0 0 0 0 0 0 0 0 0 127 0" result="hardAlpha"/>
<feOffset dx="-5" dy="-5"/>
<feGaussianBlur stdDeviation="5"/>
<feColorMatrix type="matrix" values="0 0 0 0 0.713726 0 0 0 0 0.67451 0 0 0 0 1 0 0 0 0.9 0"/>
<feBlend mode="normal" in2="effect1_dropShadow_7_56" result="effect2_dropShadow_7_56"/>
<feColorMatrix in="SourceAlpha" type="matrix" values="0 0 0 0 0 0 0 0 0 0 0 0 0 0 0 0 0 0 127 0" result="hardAlpha"/>
<feOffset dx="5" dy="-5"/>
<feGaussianBlur stdDeviation="5"/>
<feColorMatrix type="matrix" values="0 0 0 0 0.517647 0 0 0 0 0.486275 0 0 0 0 0.811765 0 0 0 0.2 0"/>
<feBlend mode="normal" in2="effect2_dropShadow_7_56" result="effect3_dropShadow_7_56"/>
<feColorMatrix in="SourceAlpha" type="matrix" values="0 0 0 0 0 0 0 0 0 0 0 0 0 0 0 0 0 0 127 0" result="hardAlpha"/>
<feOffset dx="-5" dy="5"/>
<feGaussianBlur stdDeviation="5"/>
<feColorMatrix type="matrix" values="0 0 0 0 0.517647 0 0 0 0 0.486275 0 0 0 0 0.811765 0 0 0 0.2 0"/>
<feBlend mode="normal" in2="effect3_dropShadow_7_56" result="effect4_dropShadow_7_56"/>
<feBlend mode="normal" in="SourceGraphic" in2="effect4_dropShadow_7_56" result="shape"/>
<feColorMatrix in="SourceAlpha" type="matrix" values="0 0 0 0 0 0 0 0 0 0 0 0 0 0 0 0 0 0 127 0" result="hardAlpha"/>
<feOffset dx="-1" dy="-1"/>
<feGaussianBlur stdDeviation="1"/>
<feComposite in2="hardAlpha" operator="arithmetic" k2="-1" k3="1"/>
<feColorMatrix type="matrix" values="0 0 0 0 0.517647 0 0 0 0 0.486275 0 0 0 0 0.811765 0 0 0 0.5 0"/>
<feBlend mode="normal" in2="shape" result="effect5_innerShadow_7_56"/>
<feColorMatrix in="SourceAlpha" type="matrix" values="0 0 0 0 0 0 0 0 0 0 0 0 0 0 0 0 0 0 127 0" result="hardAlpha"/>
<feOffset dx="1" dy="1"/>
<feGaussianBlur stdDeviation="1"/>
<feComposite in2="hardAlpha" operator="arithmetic" k2="-1" k3="1"/>
<feColorMatrix type="matrix" values="0 0 0 0 0.713726 0 0 0 0 0.67451 0 0 0 0 1 0 0 0 0.3 0"/>
<feBlend mode="normal" in2="effect5_innerShadow_7_56" result="effect6_innerShadow_7_56"/>
</filter>
<filter id="filter2_ddddii_7_56" x="182.531" y="0.020752" width="109.055" height="108.979" filterUnits="userSpaceOnUse" color-interpolation-filters="sRGB">
<feFlood flood-opacity="0" result="BackgroundImageFix"/>
<feColorMatrix in="SourceAlpha" type="matrix" values="0 0 0 0 0 0 0 0 0 0 0 0 0 0 0 0 0 0 127 0" result="hardAlpha"/>
<feOffset dx="5" dy="5"/>
<feGaussianBlur stdDeviation="6.5"/>
<feColorMatrix type="matrix" values="0 0 0 0 0.517647 0 0 0 0 0.486275 0 0 0 0 0.807843 0 0 0 0.9 0"/>
<feBlend mode="normal" in2="BackgroundImageFix" result="effect1_dropShadow_7_56"/>
<feColorMatrix in="SourceAlpha" type="matrix" values="0 0 0 0 0 0 0 0 0 0 0 0 0 0 0 0 0 0 127 0" result="hardAlpha"/>
<feOffset dx="-5" dy="-5"/>
<feGaussianBlur stdDeviation="5"/>
<feColorMatrix type="matrix" values="0 0 0 0 0.713726 0 0 0 0 0.67451 0 0 0 0 1 0 0 0 0.9 0"/>
<feBlend mode="normal" in2="effect1_dropShadow_7_56" result="effect2_dropShadow_7_56"/>
<feColorMatrix in="SourceAlpha" type="matrix" values="0 0 0 0 0 0 0 0 0 0 0 0 0 0 0 0 0 0 127 0" result="hardAlpha"/>
<feOffset dx="5" dy="-5"/>
<feGaussianBlur stdDeviation="5"/>
<feColorMatrix type="matrix" values="0 0 0 0 0.517647 0 0 0 0 0.486275 0 0 0 0 0.807843 0 0 0 0.2 0"/>
<feBlend mode="normal" in2="effect2_dropShadow_7_56" result="effect3_dropShadow_7_56"/>
<feColorMatrix in="SourceAlpha" type="matrix" values="0 0 0 0 0 0 0 0 0 0 0 0 0 0 0 0 0 0 127 0" result="hardAlpha"/>
<feOffset dx="-5" dy="5"/>
<feGaussianBlur stdDeviation="5"/>
<feColorMatrix type="matrix" values="0 0 0 0 0.517647 0 0 0 0 0.486275 0 0 0 0 0.807843 0 0 0 0.2 0"/>
<feBlend mode="normal" in2="effect3_dropShadow_7_56" result="effect4_dropShadow_7_56"/>
<feBlend mode="normal" in="SourceGraphic" in2="effect4_dropShadow_7_56" result="shape"/>
<feColorMatrix in="SourceAlpha" type="matrix" values="0 0 0 0 0 0 0 0 0 0 0 0 0 0 0 0 0 0 127 0" result="hardAlpha"/>
<feOffset dx="-1" dy="-1"/>
<feGaussianBlur stdDeviation="1"/>
<feComposite in2="hardAlpha" operator="arithmetic" k2="-1" k3="1"/>
<feColorMatrix type="matrix" values="0 0 0 0 0.517647 0 0 0 0 0.486275 0 0 0 0 0.807843 0 0 0 0.5 0"/>
<feBlend mode="normal" in2="shape" result="effect5_innerShadow_7_56"/>
<feColorMatrix in="SourceAlpha" type="matrix" values="0 0 0 0 0 0 0 0 0 0 0 0 0 0 0 0 0 0 127 0" result="hardAlpha"/>
<feOffset dx="1" dy="1"/>
<feGaussianBlur stdDeviation="1"/>
<feComposite in2="hardAlpha" operator="arithmetic" k2="-1" k3="1"/>
<feColorMatrix type="matrix" values="0 0 0 0 0.713726 0 0 0 0 0.67451 0 0 0 0 1 0 0 0 0.3 0"/>
<feBlend mode="normal" in2="effect5_innerShadow_7_56" result="effect6_innerShadow_7_56"/>
</filter>
<filter id="filter3_ddddii_7_56" x="273.945" y="0" width="109.055" height="108.979" filterUnits="userSpaceOnUse" color-interpolation-filters="sRGB">
<feFlood flood-opacity="0" result="BackgroundImageFix"/>
<feColorMatrix in="SourceAlpha" type="matrix" values="0 0 0 0 0 0 0 0 0 0 0 0 0 0 0 0 0 0 127 0" result="hardAlpha"/>
<feOffset dx="5" dy="5"/>
<feGaussianBlur stdDeviation="6.5"/>
<feColorMatrix type="matrix" values="0 0 0 0 0.517647 0 0 0 0 0.486275 0 0 0 0 0.811765 0 0 0 0.9 0"/>
<feBlend mode="normal" in2="BackgroundImageFix" result="effect1_dropShadow_7_56"/>
<feColorMatrix in="SourceAlpha" type="matrix" values="0 0 0 0 0 0 0 0 0 0 0 0 0 0 0 0 0 0 127 0" result="hardAlpha"/>
<feOffset dx="-5" dy="-5"/>
<feGaussianBlur stdDeviation="5"/>
<feColorMatrix type="matrix" values="0 0 0 0 0.713726 0 0 0 0 0.67451 0 0 0 0 1 0 0 0 0.9 0"/>
<feBlend mode="normal" in2="effect1_dropShadow_7_56" result="effect2_dropShadow_7_56"/>
<feColorMatrix in="SourceAlpha" type="matrix" values="0 0 0 0 0 0 0 0 0 0 0 0 0 0 0 0 0 0 127 0" result="hardAlpha"/>
<feOffset dx="5" dy="-5"/>
<feGaussianBlur stdDeviation="5"/>
<feColorMatrix type="matrix" values="0 0 0 0 0.517647 0 0 0 0 0.486275 0 0 0 0 0.811765 0 0 0 0.2 0"/>
<feBlend mode="normal" in2="effect2_dropShadow_7_56" result="effect3_dropShadow_7_56"/>
<feColorMatrix in="SourceAlpha" type="matrix" values="0 0 0 0 0 0 0 0 0 0 0 0 0 0 0 0 0 0 127 0" result="hardAlpha"/>
<feOffset dx="-5" dy="5"/>
<feGaussianBlur stdDeviation="5"/>
<feColorMatrix type="matrix" values="0 0 0 0 0.517647 0 0 0 0 0.486275 0 0 0 0 0.811765 0 0 0 0.2 0"/>
<feBlend mode="normal" in2="effect3_dropShadow_7_56" result="effect4_dropShadow_7_56"/>
<feBlend mode="normal" in="SourceGraphic" in2="effect4_dropShadow_7_56" result="shape"/>
<feColorMatrix in="SourceAlpha" type="matrix" values="0 0 0 0 0 0 0 0 0 0 0 0 0 0 0 0 0 0 127 0" result="hardAlpha"/>
<feOffset dx="-1" dy="-1"/>
<feGaussianBlur stdDeviation="1"/>
<feComposite in2="hardAlpha" operator="arithmetic" k2="-1" k3="1"/>
<feColorMatrix type="matrix" values="0 0 0 0 0.517647 0 0 0 0 0.486275 0 0 0 0 0.811765 0 0 0 0.5 0"/>
<feBlend mode="normal" in2="shape" result="effect5_innerShadow_7_56"/>
<feColorMatrix in="SourceAlpha" type="matrix" values="0 0 0 0 0 0 0 0 0 0 0 0 0 0 0 0 0 0 127 0" result="hardAlpha"/>
<feOffset dx="1" dy="1"/>
<feGaussianBlur stdDeviation="1"/>
<feComposite in2="hardAlpha" operator="arithmetic" k2="-1" k3="1"/>
<feColorMatrix type="matrix" values="0 0 0 0 0.713726 0 0 0 0 0.67451 0 0 0 0 1 0 0 0 0.3 0"/>
<feBlend mode="normal" in2="effect5_innerShadow_7_56" result="effect6_innerShadow_7_56"/>
</filter>
<linearGradient id="paint0_linear_7_56" x1="15" y1="15.0208" x2="90.9792" y2="91.0753" gradientUnits="userSpaceOnUse">
<stop stop-color="#A59BFF"/>
<stop offset="1" stop-color="#958DEE"/>
</linearGradient>
<linearGradient id="paint1_linear_7_56" x1="106.266" y1="15.0208" x2="182.245" y2="91.0754" gradientUnits="userSpaceOnUse">
<stop stop-color="#A59BFF"/>
<stop offset="1" stop-color="#958DEE"/>
</linearGradient>
<linearGradient id="paint2_linear_7_56" x1="197.531" y1="15.0208" x2="273.51" y2="91.0753" gradientUnits="userSpaceOnUse">
<stop stop-color="#A59BFF"/>
<stop offset="1" stop-color="#958DEB"/>
</linearGradient>
<linearGradient id="paint3_linear_7_56" x1="288.945" y1="15" x2="364.925" y2="91.0546" gradientUnits="userSpaceOnUse">
<stop stop-color="#A59BFF"/>
<stop offset="1" stop-color="#958DEE"/>
</linearGradient>
<clipPath id="clip0_7_56">
<rect width="38.0273" height="37.9897" fill="white" transform="translate(32.1123 32.1161)"/>
</clipPath>
<clipPath id="clip1_7_56">
<rect width="38.0273" height="37.9895" fill="white" transform="translate(125.279 33.0659)"/>
</clipPath>
<clipPath id="clip2_7_56">
<rect width="38.0273" height="37.9897" fill="white" transform="translate(215.594 32.1161)"/>
</clipPath>
<clipPath id="clip3_7_56">
<rect width="38.0273" height="37.9897" fill="white" transform="translate(305.909 32.1161)"/>
</clipPath>
</defs>
</svg>
