<svg width="40" height="30" viewBox="181 6 36 32" fill="none" xmlns="http://www.w3.org/2000/svg">
<path fill-rule="evenodd" clip-rule="evenodd" d="M199.391 12.5664C201.154 10.2853 203.968 8.85827 207.106 9.01118L207.013 10.9196L207.106 9.01118C212.967 9.29682 216.59 14.9579 215.628 20.3613C214.844 24.7619 211.799 28.2929 208.834 30.8106C205.831 33.361 202.645 35.0957 201.123 35.8574L201.123 35.8574C200.032 36.4032 198.75 36.4032 197.659 35.8574L197.659 35.8574C196.137 35.0957 192.951 33.361 189.948 30.8106C186.983 28.2929 183.938 24.7619 183.154 20.3613L183.154 20.3612C182.192 14.9579 185.815 9.29682 191.676 9.01118L191.676 9.01118C194.814 8.85832 197.628 10.2854 199.391 12.5664ZM206.92 12.828C203.882 12.68 201.368 15.0639 201.303 18.0512L201.303 18.0515C201.301 18.1405 201.292 18.3227 201.229 18.5424C201.201 18.6405 201.129 18.8639 200.961 19.106C200.828 19.2973 200.328 19.9273 199.391 19.9273C198.45 19.9273 197.95 19.293 197.816 19.0983C197.648 18.8538 197.578 18.6285 197.55 18.53C197.491 18.3175 197.481 18.1402 197.479 18.048C197.479 18.0444 197.479 18.041 197.479 18.0377L199.389 18.01L197.479 18.0512C197.479 18.0501 197.479 18.0491 197.479 18.048C197.413 15.0622 194.899 12.6801 191.862 12.828L191.769 10.9196L191.862 12.828C188.673 12.9835 186.29 16.1741 186.917 19.691C187.469 22.7916 189.708 25.5936 192.421 27.8979C195.096 30.1693 197.981 31.7453 199.369 32.44C199.384 32.4471 199.399 32.4471 199.413 32.44C200.801 31.7453 203.686 30.1693 206.361 27.8979C209.074 25.5936 211.313 22.7916 211.866 19.691C212.492 16.1741 210.109 12.9835 206.92 12.828Z" fill="#FF1744"/>
</svg>