<svg width="40" height="30" viewBox="139 6 36 32" fill="none" xmlns="http://www.w3.org/2000/svg">
<path fill-rule="evenodd" clip-rule="evenodd" d="M157.391 12.5664C159.154 10.2853 161.968 8.85827 165.106 9.01118L165.013 10.9196L165.106 9.01118C170.967 9.29682 174.591 14.9579 173.628 20.3613C172.844 24.7619 169.799 28.2929 166.834 30.8106C163.831 33.361 160.645 35.0957 159.123 35.8574L159.123 35.8574C158.032 36.4032 156.75 36.4032 155.659 35.8574L155.659 35.8574C154.137 35.0957 150.951 33.361 147.948 30.8106C144.983 28.2929 141.938 24.7619 141.154 20.3613L141.154 20.3612C140.192 14.9579 143.815 9.29682 149.676 9.01118L149.676 9.01118C152.814 8.85832 155.628 10.2854 157.391 12.5664ZM164.92 12.828C161.882 12.68 159.368 15.0639 159.303 18.0512L159.303 18.0515C159.301 18.1405 159.292 18.3227 159.229 18.5424C159.201 18.6405 159.129 18.8639 158.961 19.106C158.828 19.2973 158.328 19.9273 157.391 19.9273C156.45 19.9273 155.95 19.293 155.816 19.0983C155.648 18.8538 155.578 18.6285 155.55 18.53C155.491 18.3175 155.481 18.1402 155.479 18.048C155.479 18.0444 155.479 18.041 155.479 18.0377L157.389 18.01L155.479 18.0512C155.479 18.0501 155.479 18.0491 155.479 18.048C155.413 15.0622 152.899 12.6801 149.862 12.828L149.769 10.9196L149.862 12.828C146.673 12.9835 144.29 16.1741 144.917 19.691C145.469 22.7916 147.708 25.5936 150.421 27.8979C153.096 30.1693 155.981 31.7453 157.369 32.44C157.384 32.4471 157.399 32.4471 157.413 32.44C158.801 31.7453 161.686 30.1693 164.361 27.8979C167.074 25.5936 169.313 22.7916 169.866 19.691C170.492 16.1741 168.109 12.9835 164.92 12.828Z" fill="#FF1744"/>
<path d="M150.979 9.0111C145.717 9.26757 142.224 14.414 143.148 19.6009C144.702 28.3249 155.439 34.3319 158.824 36.0257C159.097 36.1625 159.391 36.2397 159.687 36.2601V15.8295C158.909 11.8062 155.276 8.80174 150.979 9.0111Z" fill="#FF1744"/>
</svg>