<svg width="232" height="41" viewBox="0 0 232 41" fill="none" xmlns="http://www.w3.org/2000/svg">
<g filter="url(#filter0_ddiiii_5_901)">
<rect x="3" y="3" width="226" height="35" rx="17.5" fill="#EEECFF"/>
</g>
<path fill-rule="evenodd" clip-rule="evenodd" d="M199.391 12.5664C201.154 10.2853 203.968 8.85827 207.106 9.01118L207.013 10.9196L207.106 9.01118C212.967 9.29682 216.59 14.9579 215.628 20.3613C214.844 24.7619 211.799 28.2929 208.834 30.8106C205.831 33.361 202.645 35.0957 201.123 35.8574L201.123 35.8574C200.032 36.4032 198.75 36.4032 197.659 35.8574L197.659 35.8574C196.137 35.0957 192.951 33.361 189.948 30.8106C186.983 28.2929 183.938 24.7619 183.154 20.3613L183.154 20.3612C182.192 14.9579 185.815 9.29682 191.676 9.01118L191.676 9.01118C194.814 8.85832 197.628 10.2854 199.391 12.5664ZM206.92 12.828C203.882 12.68 201.368 15.0639 201.303 18.0512L201.303 18.0515C201.301 18.1405 201.292 18.3227 201.229 18.5424C201.201 18.6405 201.129 18.8639 200.961 19.106C200.828 19.2973 200.328 19.9273 199.391 19.9273C198.45 19.9273 197.95 19.293 197.816 19.0983C197.648 18.8538 197.578 18.6285 197.55 18.53C197.491 18.3175 197.481 18.1402 197.479 18.048C197.479 18.0444 197.479 18.041 197.479 18.0377L199.389 18.01L197.479 18.0512C197.479 18.0501 197.479 18.0491 197.479 18.048C197.413 15.0622 194.899 12.6801 191.862 12.828L191.769 10.9196L191.862 12.828C188.673 12.9835 186.29 16.1741 186.917 19.691C187.469 22.7916 189.708 25.5936 192.421 27.8979C195.096 30.1693 197.981 31.7453 199.369 32.44C199.384 32.4471 199.399 32.4471 199.413 32.44C200.801 31.7453 203.686 30.1693 206.361 27.8979C209.074 25.5936 211.313 22.7916 211.866 19.691C212.492 16.1741 210.109 12.9835 206.92 12.828Z" fill="url(#paint0_radial_5_901)"/>
<path fill-rule="evenodd" clip-rule="evenodd" d="M157.391 12.5664C159.154 10.2853 161.968 8.85827 165.106 9.01118L165.013 10.9196L165.106 9.01118C170.967 9.29682 174.591 14.9579 173.628 20.3612C172.844 24.7619 169.799 28.2929 166.834 30.8106C163.831 33.361 160.645 35.0957 159.123 35.8574L159.123 35.8574C158.032 36.4032 156.75 36.4032 155.659 35.8574L155.659 35.8574C154.137 35.0957 150.951 33.361 147.948 30.8106C144.983 28.2929 141.938 24.7619 141.154 20.3612L141.154 20.3612C140.192 14.9579 143.815 9.29682 149.676 9.01118L149.676 9.01118C152.814 8.85832 155.628 10.2854 157.391 12.5664ZM164.92 12.828C161.882 12.68 159.368 15.0639 159.303 18.0512L159.303 18.0515C159.301 18.1405 159.292 18.3227 159.229 18.5424C159.201 18.6405 159.129 18.8638 158.961 19.106C158.828 19.2973 158.328 19.9273 157.391 19.9273C156.45 19.9273 155.95 19.293 155.816 19.0983C155.648 18.8538 155.578 18.6285 155.55 18.53C155.491 18.3175 155.481 18.1402 155.479 18.048C155.479 18.0444 155.479 18.041 155.479 18.0377L157.389 18.01L155.479 18.0512C155.479 18.0501 155.479 18.0491 155.479 18.048C155.413 15.0622 152.899 12.6801 149.862 12.828L149.769 10.9196L149.862 12.828C146.673 12.9835 144.29 16.1741 144.917 19.691C145.469 22.7916 147.708 25.5936 150.421 27.8978C153.096 30.1693 155.981 31.7453 157.369 32.44C157.384 32.4471 157.399 32.4471 157.413 32.44C158.801 31.7453 161.686 30.1693 164.361 27.8978C167.074 25.5936 169.313 22.7916 169.866 19.691C170.492 16.1741 168.109 12.9835 164.92 12.828Z" fill="url(#paint1_radial_5_901)"/>
<path fill-rule="evenodd" clip-rule="evenodd" d="M115.391 13.5665C117.154 11.2855 119.968 9.85839 123.106 10.0113L123.013 11.9197L123.106 10.0113C128.967 10.2969 132.591 15.958 131.628 21.3614C130.844 25.762 127.799 29.293 124.834 31.8107C121.831 34.3611 118.645 36.0958 117.123 36.8575L117.123 36.8575C116.032 37.4033 114.75 37.4033 113.659 36.8575L113.659 36.8575C112.137 36.0958 108.951 34.3611 105.948 31.8107C102.983 29.293 99.9384 25.762 99.1544 21.3614L99.1544 21.3613C98.1918 15.958 101.815 10.2969 107.676 10.0113L107.676 10.0113C110.814 9.85844 113.628 11.2855 115.391 13.5665ZM122.92 13.8282C119.882 13.6801 117.368 16.064 117.303 19.0513L117.303 19.0516C117.301 19.1406 117.292 19.3228 117.229 19.5425C117.201 19.6406 117.129 19.864 116.961 20.1062C116.828 20.2974 116.328 20.9274 115.391 20.9274C114.45 20.9274 113.95 20.2931 113.816 20.0984C113.648 19.8539 113.578 19.6286 113.55 19.5302C113.491 19.3177 113.481 19.1403 113.479 19.0481C113.479 19.0445 113.479 19.0411 113.479 19.0378L115.389 19.0101L113.479 19.0513C113.479 19.0502 113.479 19.0492 113.479 19.0481C113.413 16.0624 110.899 13.6802 107.862 13.8282L107.769 11.9197L107.862 13.8282C104.673 13.9836 102.29 17.1742 102.917 20.6911C103.469 23.7917 105.708 26.5938 108.421 28.898C111.096 31.1695 113.981 32.7454 115.369 33.4402C115.384 33.4472 115.399 33.4472 115.413 33.4402C116.801 32.7454 119.686 31.1695 122.361 28.898C125.074 26.5938 127.313 23.7917 127.866 20.6911C128.492 17.1742 126.109 13.9836 122.92 13.8282Z" fill="url(#paint2_radial_5_901)"/>
<path d="M108.979 9.0111C103.717 9.26757 100.224 14.414 101.148 19.6009C102.702 28.3249 113.439 34.3319 116.824 36.0257C117.097 36.1625 117.391 36.2397 117.687 36.2601V15.8295C116.909 11.8062 113.276 8.80174 108.979 9.0111Z" fill="url(#paint3_radial_5_901)"/>
<path d="M81.7081 9.01031C76.9164 8.77681 72.9475 12.5404 72.8458 17.2564C72.8455 17.2667 72.8419 17.2667 72.8418 17.2564C72.7401 12.5404 68.7712 8.77688 63.9795 9.01031C58.7169 9.26679 55.2241 14.414 56.1482 19.6011C57.7024 28.3251 68.4393 34.3317 71.8241 36.0256C72.4665 36.3471 73.221 36.3471 73.8635 36.0256C77.2483 34.3317 87.9851 28.3251 89.5393 19.6011C90.4634 14.414 86.9706 9.26679 81.7081 9.01031V9.01031Z" fill="url(#paint4_radial_5_901)"/>
<path d="M40.6768 9.27367C35.8852 9.04018 31.9162 12.8037 31.8145 17.5197C31.8143 17.53 31.8107 17.53 31.8105 17.5197C31.7088 12.8037 27.7399 9.04025 22.9482 9.27367C17.6856 9.53016 14.1929 14.6774 15.1169 19.8645C16.6712 28.5884 27.408 34.5951 30.7928 36.289C31.4353 36.6105 32.1898 36.6105 32.8322 36.289C36.217 34.5951 46.9539 28.5884 48.5081 19.8645C49.4322 14.6774 45.9394 9.53016 40.6768 9.27367V9.27367Z" fill="url(#paint5_radial_5_901)"/>
<defs>
<filter id="filter0_ddiiii_5_901" x="-2" y="-2" width="236" height="45" filterUnits="userSpaceOnUse" color-interpolation-filters="sRGB">
<feFlood flood-opacity="0" result="BackgroundImageFix"/>
<feColorMatrix in="SourceAlpha" type="matrix" values="0 0 0 0 0 0 0 0 0 0 0 0 0 0 0 0 0 0 127 0" result="hardAlpha"/>
<feOffset dx="-1" dy="-1"/>
<feGaussianBlur stdDeviation="1"/>
<feColorMatrix type="matrix" values="0 0 0 0 0.737255 0 0 0 0 0.72549 0 0 0 0 0.901961 0 0 0 0.5 0"/>
<feBlend mode="normal" in2="BackgroundImageFix" result="effect1_dropShadow_5_901"/>
<feColorMatrix in="SourceAlpha" type="matrix" values="0 0 0 0 0 0 0 0 0 0 0 0 0 0 0 0 0 0 127 0" result="hardAlpha"/>
<feOffset dx="1" dy="1"/>
<feGaussianBlur stdDeviation="1"/>
<feColorMatrix type="matrix" values="0 0 0 0 0.901961 0 0 0 0 0.886275 0 0 0 0 1 0 0 0 0.3 0"/>
<feBlend mode="normal" in2="effect1_dropShadow_5_901" result="effect2_dropShadow_5_901"/>
<feBlend mode="normal" in="SourceGraphic" in2="effect2_dropShadow_5_901" result="shape"/>
<feColorMatrix in="SourceAlpha" type="matrix" values="0 0 0 0 0 0 0 0 0 0 0 0 0 0 0 0 0 0 127 0" result="hardAlpha"/>
<feOffset dx="5" dy="5"/>
<feGaussianBlur stdDeviation="6.5"/>
<feComposite in2="hardAlpha" operator="arithmetic" k2="-1" k3="1"/>
<feColorMatrix type="matrix" values="0 0 0 0 0.737255 0 0 0 0 0.72549 0 0 0 0 0.901961 0 0 0 0.9 0"/>
<feBlend mode="normal" in2="shape" result="effect3_innerShadow_5_901"/>
<feColorMatrix in="SourceAlpha" type="matrix" values="0 0 0 0 0 0 0 0 0 0 0 0 0 0 0 0 0 0 127 0" result="hardAlpha"/>
<feOffset dx="-5" dy="-5"/>
<feGaussianBlur stdDeviation="5"/>
<feComposite in2="hardAlpha" operator="arithmetic" k2="-1" k3="1"/>
<feColorMatrix type="matrix" values="0 0 0 0 0.901961 0 0 0 0 0.886275 0 0 0 0 1 0 0 0 0.9 0"/>
<feBlend mode="normal" in2="effect3_innerShadow_5_901" result="effect4_innerShadow_5_901"/>
<feColorMatrix in="SourceAlpha" type="matrix" values="0 0 0 0 0 0 0 0 0 0 0 0 0 0 0 0 0 0 127 0" result="hardAlpha"/>
<feOffset dx="5" dy="-5"/>
<feGaussianBlur stdDeviation="5"/>
<feComposite in2="hardAlpha" operator="arithmetic" k2="-1" k3="1"/>
<feColorMatrix type="matrix" values="0 0 0 0 0.737255 0 0 0 0 0.72549 0 0 0 0 0.901961 0 0 0 0.2 0"/>
<feBlend mode="normal" in2="effect4_innerShadow_5_901" result="effect5_innerShadow_5_901"/>
<feColorMatrix in="SourceAlpha" type="matrix" values="0 0 0 0 0 0 0 0 0 0 0 0 0 0 0 0 0 0 127 0" result="hardAlpha"/>
<feOffset dx="-5" dy="5"/>
<feGaussianBlur stdDeviation="5"/>
<feComposite in2="hardAlpha" operator="arithmetic" k2="-1" k3="1"/>
<feColorMatrix type="matrix" values="0 0 0 0 0.737255 0 0 0 0 0.72549 0 0 0 0 0.901961 0 0 0 0.2 0"/>
<feBlend mode="normal" in2="effect5_innerShadow_5_901" result="effect6_innerShadow_5_901"/>
</filter>
<radialGradient id="paint0_radial_5_901" cx="0" cy="0" r="1" gradientUnits="userSpaceOnUse" gradientTransform="translate(196.264 16.4783) scale(18.0259 18.5237)">
<stop stop-color="#FF4974"/>
<stop offset="0.4497" stop-color="#FE4773"/>
<stop offset="0.6292" stop-color="#FC406D"/>
<stop offset="0.7605" stop-color="#F73464"/>
<stop offset="0.8683" stop-color="#F12257"/>
<stop offset="0.9606" stop-color="#E80C46"/>
<stop offset="1" stop-color="#E4003D"/>
</radialGradient>
<radialGradient id="paint1_radial_5_901" cx="0" cy="0" r="1" gradientUnits="userSpaceOnUse" gradientTransform="translate(154.264 16.4783) scale(18.0259 18.5237)">
<stop stop-color="#FF4974"/>
<stop offset="0.4497" stop-color="#FE4773"/>
<stop offset="0.6292" stop-color="#FC406D"/>
<stop offset="0.7605" stop-color="#F73464"/>
<stop offset="0.8683" stop-color="#F12257"/>
<stop offset="0.9606" stop-color="#E80C46"/>
<stop offset="1" stop-color="#E4003D"/>
</radialGradient>
<radialGradient id="paint2_radial_5_901" cx="0" cy="0" r="1" gradientUnits="userSpaceOnUse" gradientTransform="translate(112.264 17.4784) scale(18.0259 18.5237)">
<stop stop-color="#FF4974"/>
<stop offset="0.4497" stop-color="#FE4773"/>
<stop offset="0.6292" stop-color="#FC406D"/>
<stop offset="0.7605" stop-color="#F73464"/>
<stop offset="0.8683" stop-color="#F12257"/>
<stop offset="0.9606" stop-color="#E80C46"/>
<stop offset="1" stop-color="#E4003D"/>
</radialGradient>
<radialGradient id="paint3_radial_5_901" cx="0" cy="0" r="1" gradientUnits="userSpaceOnUse" gradientTransform="translate(121.057 16.4786) rotate(180) scale(18.5236 18.5237)">
<stop stop-color="#FF4974"/>
<stop offset="0.4497" stop-color="#FE4773"/>
<stop offset="0.6292" stop-color="#FC406D"/>
<stop offset="0.7605" stop-color="#F73464"/>
<stop offset="0.8683" stop-color="#F12257"/>
<stop offset="0.9606" stop-color="#E80C46"/>
<stop offset="1" stop-color="#E4003D"/>
</radialGradient>
<radialGradient id="paint4_radial_5_901" cx="0" cy="0" r="1" gradientUnits="userSpaceOnUse" gradientTransform="translate(69.6301 16.4783) scale(18.5237 18.5237)">
<stop stop-color="#FF4974"/>
<stop offset="0.4497" stop-color="#FE4773"/>
<stop offset="0.6292" stop-color="#FC406D"/>
<stop offset="0.7605" stop-color="#F73464"/>
<stop offset="0.8683" stop-color="#F12257"/>
<stop offset="0.9606" stop-color="#E80C46"/>
<stop offset="1" stop-color="#E4003D"/>
</radialGradient>
<radialGradient id="paint5_radial_5_901" cx="0" cy="0" r="1" gradientUnits="userSpaceOnUse" gradientTransform="translate(28.5989 16.7416) scale(18.5237 18.5237)">
<stop stop-color="#FF4974"/>
<stop offset="0.4497" stop-color="#FE4773"/>
<stop offset="0.6292" stop-color="#FC406D"/>
<stop offset="0.7605" stop-color="#F73464"/>
<stop offset="0.8683" stop-color="#F12257"/>
<stop offset="0.9606" stop-color="#E80C46"/>
<stop offset="1" stop-color="#E4003D"/>
</radialGradient>
</defs>
</svg>
