<svg width="40" height="40" viewBox="0 0 40 40" fill="none" xmlns="http://www.w3.org/2000/svg">
<path d="M17.6 2.39999C16 3.99999 16.8 6.39999 18.4 7.99999C22.4 7.19999 26.4 9.59999 25.6 12.8C29.6 12.8 32.8 16 31.2 19.2C35.2 20.8 36 25.6 32 28C32.8 32 28 34.4 23.2 32.8C21.6 34.4 18.4 34.4 16.8 32.8C12 34.4 7.2 32 8 28C4 25.6 4.8 20.8 8.8 19.2C7.2 16 10.4 12.8 14.4 12.8C13.6 9.59999 12 7.19999 13.6 5.59999C14.4 3.99999 16 2.39999 17.6 2.39999Z" fill="#8B5A2B" stroke="#6B4423" stroke-width="2.5" stroke-linecap="round" stroke-linejoin="round"/>
<path opacity="0.6" d="M16 5.60001C15.2 7.20001 15.2 8.80001 16.4 10.4" stroke="#6B4423" stroke-width="2" stroke-linecap="round"/>
<path d="M35.288 23.5994C34.2016 24.3102 33.2752 25.2455 32.5744 26.3391C32.4168 26.585 32.052 26.585 31.8944 26.3391C31.1935 25.2456 30.2672 24.3103 29.1808 23.5994C28.9397 23.4416 28.9397 23.0818 29.1808 22.9241C30.2672 22.2134 31.1936 21.278 31.8944 20.1845C32.0519 19.9385 32.4167 19.9385 32.5744 20.1845C33.2752 21.2779 34.2016 22.2133 35.288 22.9241C35.5292 23.0818 35.5292 23.4416 35.288 23.5994Z" fill="url(#paint0_linear_7_19)"/>
<path d="M22.5761 10.1986C20.4033 11.6203 18.5506 13.4909 17.1488 15.678C16.8336 16.1698 16.104 16.1698 15.7889 15.678C14.3873 13.4909 12.5347 11.6203 10.3617 10.1987C9.87943 9.88313 9.87943 9.16368 10.3617 8.84809C12.5345 7.42642 14.3873 5.55577 15.7889 3.36884C16.104 2.87705 16.8336 2.87705 17.1488 3.36884C18.5505 5.55589 20.4033 7.42654 22.5761 8.8482C23.0584 9.16357 23.0584 9.88302 22.5761 10.1986V10.1986Z" fill="url(#paint1_linear_7_19)"/>
<defs>
<linearGradient id="paint0_linear_7_19" x1="29.0381" y1="19.2446" x2="33.7385" y2="25.1519" gradientUnits="userSpaceOnUse">
<stop stop-color="#FFE548"/>
<stop offset="0.1758" stop-color="#FFDE50"/>
<stop offset="0.4446" stop-color="#FFCA65"/>
<stop offset="0.7709" stop-color="#FFAA87"/>
<stop offset="1" stop-color="#FF90A4"/>
</linearGradient>
<linearGradient id="paint1_linear_7_19" x1="10.0762" y1="1.48905" x2="19.4771" y2="13.3036" gradientUnits="userSpaceOnUse">
<stop stop-color="#FFE548"/>
<stop offset="0.1758" stop-color="#FFDE50"/>
<stop offset="0.4446" stop-color="#FFCA65"/>
<stop offset="0.7709" stop-color="#FFAA87"/>
<stop offset="1" stop-color="#FF90A4"/>
</linearGradient>
</defs>
</svg>
