<svg width="278" height="53" viewBox="0 0 278 53" fill="none" xmlns="http://www.w3.org/2000/svg">
<path d="M20 0.5H258C268.77 0.5 277.5 9.23045 277.5 20V52.5H20C9.23045 52.5 0.5 43.7696 0.5 33V20C0.5 9.3986 8.95996 0.773603 19.4971 0.506836L20 0.5Z" fill="#F4E9F4"/>
<path d="M20 0.5H258C268.77 0.5 277.5 9.23045 277.5 20V52.5H20C9.23045 52.5 0.5 43.7696 0.5 33V20C0.5 9.3986 8.95996 0.773603 19.4971 0.506836L20 0.5Z" stroke="black"/>
<path d="M17.362 21.71H18.986V22.102C18.986 22.55 18.9113 22.984 18.762 23.404C18.622 23.824 18.4073 24.216 18.118 24.58C17.8287 24.9347 17.474 25.2567 17.054 25.546C16.6433 25.826 16.1673 26.064 15.626 26.26C15.0847 26.456 14.4827 26.596 13.82 26.68L13.134 25.238C13.7127 25.1633 14.226 25.0513 14.674 24.902C15.1313 24.7433 15.528 24.5613 15.864 24.356C16.2 24.1413 16.48 23.9127 16.704 23.67C16.928 23.4273 17.0913 23.1707 17.194 22.9C17.306 22.6293 17.362 22.3633 17.362 22.102V21.71ZM17.908 21.71H19.518V22.102C19.518 22.3633 19.5693 22.6293 19.672 22.9C19.784 23.1707 19.952 23.4273 20.176 23.67C20.4 23.9127 20.68 24.1413 21.016 24.356C21.3613 24.5613 21.758 24.7433 22.206 24.902C22.654 25.0513 23.1673 25.1633 23.746 25.238L23.06 26.68C22.3973 26.596 21.7953 26.456 21.254 26.26C20.7127 26.064 20.232 25.826 19.812 25.546C19.4013 25.2567 19.0513 24.9347 18.762 24.58C18.482 24.216 18.2673 23.824 18.118 23.404C17.978 22.984 17.908 22.55 17.908 22.102V21.71ZM17.46 28.5H19.322V33.246H17.46V28.5ZM12.574 27.422H24.306V28.92H12.574V27.422ZM13.61 20.94H23.228V22.41H13.61V20.94ZM34.3569 20.282H36.2189V29.592H34.3569V20.282ZM27.5809 31.524H36.5549V33.022H27.5809V31.524ZM27.5809 28.668H29.4429V32.14H27.5809V28.668ZM29.1629 21.108C29.8256 21.108 30.4229 21.248 30.9549 21.528C31.4869 21.808 31.9069 22.1953 32.2149 22.69C32.5322 23.1847 32.6909 23.754 32.6909 24.398C32.6909 25.0233 32.5322 25.588 32.2149 26.092C31.9069 26.5867 31.4869 26.9787 30.9549 27.268C30.4229 27.548 29.8256 27.688 29.1629 27.688C28.5002 27.688 27.9029 27.548 27.3709 27.268C26.8389 26.9787 26.4142 26.5867 26.0969 26.092C25.7889 25.588 25.6349 25.0233 25.6349 24.398C25.6349 23.754 25.7889 23.1847 26.0969 22.69C26.4142 22.1953 26.8389 21.808 27.3709 21.528C27.9029 21.248 28.5002 21.108 29.1629 21.108ZM29.1629 22.704C28.8456 22.704 28.5562 22.774 28.2949 22.914C28.0336 23.0447 27.8282 23.236 27.6789 23.488C27.5296 23.7307 27.4549 24.034 27.4549 24.398C27.4549 24.7433 27.5296 25.042 27.6789 25.294C27.8282 25.5367 28.0336 25.728 28.2949 25.868C28.5562 25.9987 28.8456 26.064 29.1629 26.064C29.4802 26.064 29.7696 25.9987 30.0309 25.868C30.2922 25.728 30.4976 25.5367 30.6469 25.294C30.7962 25.042 30.8709 24.7433 30.8709 24.398C30.8709 24.034 30.7962 23.7307 30.6469 23.488C30.4976 23.236 30.2922 23.0447 30.0309 22.914C29.7696 22.774 29.4802 22.704 29.1629 22.704ZM47.2358 20.268H49.0978V27.534H47.2358V20.268ZM39.0598 21.024H40.9078V26.358H39.0598V21.024ZM39.0598 25.378H40.1798C41.3091 25.378 42.3498 25.3453 43.3018 25.28C44.2631 25.2053 45.2198 25.0607 46.1718 24.846L46.3958 26.344C45.4065 26.568 44.4125 26.722 43.4138 26.806C42.4245 26.8807 41.3465 26.918 40.1798 26.918H39.0598V25.378ZM40.4738 28.08H49.0978V33.106H40.4738V28.08ZM47.2778 29.55H42.2938V31.636H47.2778V29.55ZM59.379 27.562H61.227V30.516H59.379V27.562ZM60.303 20.94C61.227 20.94 62.053 21.0893 62.781 21.388C63.5183 21.6773 64.097 22.088 64.517 22.62C64.937 23.152 65.147 23.782 65.147 24.51C65.147 25.2287 64.937 25.8587 64.517 26.4C64.097 26.9413 63.5183 27.3613 62.781 27.66C62.053 27.9493 61.227 28.094 60.303 28.094C59.3883 28.094 58.5623 27.9493 57.825 27.66C57.097 27.3613 56.5183 26.9413 56.089 26.4C55.669 25.8587 55.459 25.2287 55.459 24.51C55.459 23.782 55.669 23.152 56.089 22.62C56.5183 22.088 57.097 21.6773 57.825 21.388C58.5623 21.0893 59.3883 20.94 60.303 20.94ZM60.303 22.41C59.715 22.41 59.1923 22.494 58.735 22.662C58.287 22.83 57.9323 23.068 57.671 23.376C57.419 23.684 57.293 24.062 57.293 24.51C57.293 24.9487 57.419 25.3267 57.671 25.644C57.9323 25.952 58.287 26.19 58.735 26.358C59.1923 26.526 59.715 26.61 60.303 26.61C60.9003 26.61 61.423 26.526 61.871 26.358C62.3283 26.19 62.683 25.952 62.935 25.644C63.187 25.3267 63.313 24.9487 63.313 24.51C63.313 24.062 63.187 23.684 62.935 23.376C62.683 23.068 62.3283 22.83 61.871 22.662C61.423 22.494 60.9003 22.41 60.303 22.41ZM54.451 30.222H66.197V31.734H54.451V30.222ZM68.7719 22.858H77.7179V24.328H68.7719V22.858ZM67.3299 25.182H79.0619V26.652H67.3299V25.182ZM68.7719 20.408H70.6199V23.642H68.7719V20.408ZM68.6459 27.436H77.6759V30.88H70.5359V32.014H68.6599V29.564H75.8139V28.836H68.6459V27.436ZM68.6599 31.692H78.0539V33.106H68.6599V31.692ZM83.449 26.582H95.181V28.052H83.449V26.582ZM88.475 27.534H90.365V30.278H88.475V27.534ZM84.821 31.524H93.907V33.022H84.821V31.524ZM84.821 29.13H86.697V31.902H84.821V29.13ZM89.301 20.506C90.2343 20.506 91.051 20.618 91.751 20.842C92.451 21.0567 92.9923 21.3693 93.375 21.78C93.767 22.1813 93.963 22.6573 93.963 23.208C93.963 23.7493 93.767 24.2207 93.375 24.622C92.9923 25.0233 92.451 25.336 91.751 25.56C91.051 25.784 90.2343 25.896 89.301 25.896C88.377 25.896 87.565 25.784 86.865 25.56C86.165 25.336 85.619 25.0233 85.227 24.622C84.835 24.2207 84.639 23.7493 84.639 23.208C84.639 22.6573 84.835 22.1813 85.227 21.78C85.619 21.3693 86.165 21.0567 86.865 20.842C87.565 20.618 88.377 20.506 89.301 20.506ZM89.301 21.99C88.7597 21.99 88.2883 22.0367 87.887 22.13C87.495 22.2233 87.187 22.3587 86.963 22.536C86.7483 22.7133 86.641 22.9373 86.641 23.208C86.641 23.46 86.7483 23.6793 86.963 23.866C87.187 24.0527 87.495 24.1927 87.887 24.286C88.2883 24.37 88.7597 24.412 89.301 24.412C89.8517 24.412 90.323 24.37 90.715 24.286C91.1163 24.1927 91.4243 24.0527 91.639 23.866C91.8537 23.6793 91.961 23.46 91.961 23.208C91.961 22.9373 91.8537 22.7133 91.639 22.536C91.4243 22.3587 91.1163 22.2233 90.715 22.13C90.323 22.0367 89.8517 21.99 89.301 21.99ZM101.424 24.636H103.58V26.148H101.424V24.636ZM98.6659 21.402H100.08V23.572C100.08 24.3093 100.029 25.0327 99.9259 25.742C99.8232 26.4513 99.6552 27.1187 99.4219 27.744C99.1979 28.3693 98.8992 28.934 98.5259 29.438C98.1619 29.9327 97.7186 30.3387 97.1959 30.656L96.0759 29.256C96.5612 28.9667 96.9672 28.612 97.2939 28.192C97.6206 27.772 97.8866 27.31 98.0919 26.806C98.2972 26.302 98.4419 25.7793 98.5259 25.238C98.6192 24.6873 98.6659 24.132 98.6659 23.572V21.402ZM99.0719 21.402H100.458V23.488C100.458 24.02 100.495 24.5473 100.57 25.07C100.654 25.5927 100.785 26.092 100.962 26.568C101.139 27.044 101.373 27.4827 101.662 27.884C101.961 28.2853 102.334 28.6307 102.782 28.92L101.76 30.376C101.256 30.0587 100.827 29.6573 100.472 29.172C100.127 28.6773 99.8512 28.122 99.6459 27.506C99.4406 26.89 99.2912 26.2413 99.1979 25.56C99.1139 24.8787 99.0719 24.188 99.0719 23.488V21.402ZM105.68 20.268H107.458V33.232H105.68V20.268ZM103.048 20.478H104.784V32.658H103.048V20.478ZM110.649 23.768H119.637V25.252H110.649V23.768ZM109.207 26.596H120.939V28.08H109.207V26.596ZM110.649 20.73H112.511V24.51H110.649V20.73ZM110.537 31.468H119.707V32.966H110.537V31.468ZM110.537 29.102H112.399V31.874H110.537V29.102ZM126.768 20.856H134.972V22.326H126.768V20.856ZM125.326 25.518H137.072V26.988H125.326V25.518ZM133.852 20.856H135.686V21.892C135.686 22.4427 135.672 23.0353 135.644 23.67C135.616 24.3047 135.504 25.042 135.308 25.882L133.446 25.868C133.651 25.0187 133.768 24.2813 133.796 23.656C133.833 23.0307 133.852 22.4427 133.852 21.892V20.856ZM126.698 28.346H135.63V33.106H126.698V28.346ZM133.81 29.802H128.532V31.636H133.81V29.802ZM145.149 23.628H148.159V25.126H145.149V23.628ZM147.179 20.282H149.055V29.732H147.179V20.282ZM140.487 31.524H149.349V33.022H140.487V31.524ZM140.487 28.934H142.349V32.406H140.487V28.934ZM141.201 21.976H142.713V22.788C142.713 23.6093 142.582 24.3887 142.321 25.126C142.06 25.8633 141.658 26.512 141.117 27.072C140.585 27.6227 139.899 28.038 139.059 28.318L138.135 26.834C138.667 26.6567 139.124 26.428 139.507 26.148C139.899 25.8587 140.216 25.532 140.459 25.168C140.711 24.804 140.898 24.4213 141.019 24.02C141.14 23.6187 141.201 23.208 141.201 22.788V21.976ZM141.593 21.976H143.077V22.788C143.077 23.292 143.18 23.796 143.385 24.3C143.59 24.7947 143.908 25.2473 144.337 25.658C144.776 26.0593 145.336 26.3767 146.017 26.61L145.107 28.052C144.304 27.7813 143.642 27.3847 143.119 26.862C142.606 26.33 142.223 25.714 141.971 25.014C141.719 24.3047 141.593 23.5627 141.593 22.788V21.976ZM138.639 21.15H145.611V22.634H138.639V21.15ZM151.084 26.582H162.816V28.052H151.084V26.582ZM156.11 27.534H158V30.278H156.11V27.534ZM152.456 31.524H161.542V33.022H152.456V31.524ZM152.456 29.13H154.332V31.902H152.456V29.13ZM156.936 20.506C157.869 20.506 158.686 20.618 159.386 20.842C160.086 21.0567 160.627 21.3693 161.01 21.78C161.402 22.1813 161.598 22.6573 161.598 23.208C161.598 23.7493 161.402 24.2207 161.01 24.622C160.627 25.0233 160.086 25.336 159.386 25.56C158.686 25.784 157.869 25.896 156.936 25.896C156.012 25.896 155.2 25.784 154.5 25.56C153.8 25.336 153.254 25.0233 152.862 24.622C152.47 24.2207 152.274 23.7493 152.274 23.208C152.274 22.6573 152.47 22.1813 152.862 21.78C153.254 21.3693 153.8 21.0567 154.5 20.842C155.2 20.618 156.012 20.506 156.936 20.506ZM156.936 21.99C156.394 21.99 155.923 22.0367 155.522 22.13C155.13 22.2233 154.822 22.3587 154.598 22.536C154.383 22.7133 154.276 22.9373 154.276 23.208C154.276 23.46 154.383 23.6793 154.598 23.866C154.822 24.0527 155.13 24.1927 155.522 24.286C155.923 24.37 156.394 24.412 156.936 24.412C157.486 24.412 157.958 24.37 158.35 24.286C158.751 24.1927 159.059 24.0527 159.274 23.866C159.488 23.6793 159.596 23.46 159.596 23.208C159.596 22.9373 159.488 22.7133 159.274 22.536C159.059 22.3587 158.751 22.2233 158.35 22.13C157.958 22.0367 157.486 21.99 156.936 21.99ZM172.853 20.254H174.715V33.26H172.853V20.254ZM167.729 21.164C168.391 21.164 168.979 21.3553 169.493 21.738C170.006 22.1113 170.407 22.648 170.697 23.348C170.995 24.0387 171.145 24.8553 171.145 25.798C171.145 26.75 170.995 27.576 170.697 28.276C170.407 28.9667 170.006 29.5033 169.493 29.886C168.979 30.2593 168.391 30.446 167.729 30.446C167.075 30.446 166.492 30.2593 165.979 29.886C165.465 29.5033 165.059 28.9667 164.761 28.276C164.471 27.576 164.327 26.75 164.327 25.798C164.327 24.8553 164.471 24.0387 164.761 23.348C165.059 22.648 165.465 22.1113 165.979 21.738C166.492 21.3553 167.075 21.164 167.729 21.164ZM167.729 22.858C167.411 22.858 167.131 22.97 166.889 23.194C166.646 23.418 166.455 23.7493 166.315 24.188C166.184 24.6173 166.119 25.154 166.119 25.798C166.119 26.4327 166.184 26.974 166.315 27.422C166.455 27.8607 166.646 28.192 166.889 28.416C167.131 28.64 167.411 28.752 167.729 28.752C168.055 28.752 168.34 28.64 168.583 28.416C168.825 28.192 169.012 27.8607 169.143 27.422C169.283 26.974 169.353 26.4327 169.353 25.798C169.353 25.154 169.283 24.6173 169.143 24.188C169.012 23.7493 168.825 23.418 168.583 23.194C168.34 22.97 168.055 22.858 167.729 22.858ZM184.982 24.146H186.844V25.938H184.982V24.146ZM184.66 21.192H186.27V21.528C186.27 21.8733 186.2 22.2047 186.06 22.522C185.92 22.8393 185.71 23.1333 185.43 23.404C185.159 23.6653 184.814 23.8987 184.394 24.104C183.983 24.3093 183.502 24.4773 182.952 24.608C182.41 24.7387 181.808 24.8273 181.146 24.874L180.572 23.474C181.141 23.446 181.645 23.39 182.084 23.306C182.532 23.2127 182.914 23.1007 183.232 22.97C183.558 22.8393 183.824 22.6993 184.03 22.55C184.244 22.3913 184.403 22.2233 184.506 22.046C184.608 21.8687 184.66 21.696 184.66 21.528V21.192ZM185.598 21.192H187.208V21.528C187.208 21.696 187.259 21.8687 187.362 22.046C187.464 22.2233 187.618 22.3913 187.824 22.55C188.038 22.6993 188.304 22.8393 188.622 22.97C188.948 23.1007 189.331 23.2127 189.77 23.306C190.218 23.39 190.731 23.446 191.31 23.474L190.736 24.874C190.064 24.8273 189.452 24.7387 188.902 24.608C188.36 24.4773 187.884 24.314 187.474 24.118C187.063 23.9127 186.718 23.6793 186.438 23.418C186.158 23.1473 185.948 22.8533 185.808 22.536C185.668 22.2187 185.598 21.8827 185.598 21.528V21.192ZM181.146 20.59H190.75V22.004H181.146V20.59ZM181.132 28.094H190.722V29.494H181.132V28.094ZM180.082 25.322H191.814V26.778H180.082V25.322ZM185.906 29.858C187.166 29.858 188.141 30.0073 188.832 30.306C189.522 30.5953 189.868 31.0153 189.868 31.566C189.868 32.126 189.522 32.5507 188.832 32.84C188.141 33.1293 187.166 33.274 185.906 33.274C184.655 33.274 183.684 33.1293 182.994 32.84C182.303 32.5507 181.958 32.126 181.958 31.566C181.958 31.0153 182.303 30.5953 182.994 30.306C183.684 30.0073 184.655 29.858 185.906 29.858ZM185.906 31.09C185.234 31.09 184.73 31.1273 184.394 31.202C184.058 31.2673 183.89 31.3887 183.89 31.566C183.89 31.7433 184.058 31.8693 184.394 31.944C184.73 32.0187 185.234 32.056 185.906 32.056C186.587 32.056 187.096 32.0187 187.432 31.944C187.777 31.8693 187.95 31.7433 187.95 31.566C187.95 31.3887 187.777 31.2673 187.432 31.202C187.096 31.1273 186.587 31.09 185.906 31.09ZM184.996 27.184H186.844V28.92H184.996V27.184ZM194.319 28.038H196.167V29.13H201.361V28.038H203.195V33.106H194.319V28.038ZM196.167 30.53V31.65H201.361V30.53H196.167ZM192.947 25.938H204.679V27.394H192.947V25.938ZM197.861 20.408H199.457V20.8C199.457 21.2573 199.377 21.6913 199.219 22.102C199.069 22.5127 198.85 22.8953 198.561 23.25C198.271 23.6047 197.912 23.9267 197.483 24.216C197.063 24.496 196.577 24.734 196.027 24.93C195.476 25.1167 194.865 25.2567 194.193 25.35L193.521 23.908C194.109 23.8427 194.636 23.7353 195.103 23.586C195.569 23.4367 195.975 23.2593 196.321 23.054C196.666 22.8393 196.951 22.6107 197.175 22.368C197.408 22.116 197.581 21.8593 197.693 21.598C197.805 21.3273 197.861 21.0613 197.861 20.8V20.408ZM198.169 20.408H199.765V20.8C199.765 21.0613 199.821 21.3273 199.933 21.598C200.045 21.8593 200.213 22.116 200.437 22.368C200.67 22.6107 200.959 22.8393 201.305 23.054C201.65 23.2593 202.056 23.4367 202.523 23.586C202.999 23.7353 203.526 23.8427 204.105 23.908L203.433 25.35C202.761 25.2567 202.149 25.1167 201.599 24.93C201.057 24.734 200.572 24.496 200.143 24.216C199.713 23.9267 199.354 23.6047 199.065 23.25C198.775 22.8953 198.551 22.5127 198.393 22.102C198.243 21.682 198.169 21.248 198.169 20.8V20.408ZM214.814 20.268H216.662V33.232H214.814V20.268ZM206.512 21.5H208.374V29.564H206.512V21.5ZM206.512 28.458H207.66C208.612 28.458 209.606 28.4207 210.642 28.346C211.678 28.262 212.732 28.1127 213.806 27.898L214.002 29.452C212.9 29.6853 211.813 29.844 210.74 29.928C209.676 30.0027 208.649 30.04 207.66 30.04H206.512V28.458ZM226.993 20.254H228.869V33.26H226.993V20.254ZM228.463 25.056H230.745V26.596H228.463V25.056ZM219.209 28.612H220.301C221.038 28.612 221.729 28.6027 222.373 28.584C223.017 28.556 223.642 28.514 224.249 28.458C224.855 28.3927 225.476 28.304 226.111 28.192L226.293 29.732C225.639 29.844 224.995 29.9327 224.361 29.998C223.735 30.0633 223.091 30.1053 222.429 30.124C221.766 30.1427 221.057 30.152 220.301 30.152H219.209V28.612ZM219.209 21.458H225.257V22.956H221.071V29.34H219.209V21.458ZM233.107 32.1293C232.778 32.1293 232.497 32.0133 232.261 31.7812C232.029 31.5459 231.913 31.2642 231.913 30.9361C231.913 30.6113 232.029 30.3329 232.261 30.1009C232.497 29.8688 232.778 29.7528 233.107 29.7528C233.425 29.7528 233.703 29.8688 233.942 30.1009C234.18 30.3329 234.3 30.6113 234.3 30.9361C234.3 31.1548 234.243 31.3554 234.131 31.5376C234.021 31.7166 233.877 31.8608 233.698 31.9702C233.519 32.0762 233.322 32.1293 233.107 32.1293ZM241.331 21.8182L241.137 28.9474H239.317L239.118 21.8182H241.331ZM240.227 32.1293C239.899 32.1293 239.617 32.0133 239.382 31.7812C239.147 31.5459 239.031 31.2642 239.034 30.9361C239.031 30.6113 239.147 30.3329 239.382 30.1009C239.617 29.8688 239.899 29.7528 240.227 29.7528C240.542 29.7528 240.819 29.8688 241.057 30.1009C241.296 30.3329 241.417 30.6113 241.42 30.9361C241.417 31.1548 241.359 31.3554 241.246 31.5376C241.137 31.7166 240.993 31.8608 240.814 31.9702C240.635 32.0762 240.439 32.1293 240.227 32.1293Z" fill="#6B5F07"/>
</svg>
