<svg width="109" height="109" viewBox="89.84800000000001 -1.5 109 109" fill="none" xmlns="http://www.w3.org/2000/svg">
<g filter="url(#filter1_ddddii_7_23)">
<ellipse cx="144.348" cy="53" rx="38.0435" ry="38" fill="url(#paint1_linear_7_23)"/>
</g>
<g clip-path="url(#clip1_7_23)">
<path d="M157.769 57.8469C157.309 57.6295 156.775 57.6173 156.305 57.8134C156.284 57.8223 156.263 57.8317 156.243 57.8418C152.944 59.181 149.32 59.1692 146.027 57.8066C142.711 56.4338 140.129 53.8543 138.756 50.5434C137.321 47.0807 137.408 43.1466 138.991 39.7557C139.197 39.3219 139.221 38.8343 139.059 38.3826C138.897 37.9309 138.568 37.5693 138.134 37.3643C137.674 37.1469 137.14 37.1345 136.676 37.3281C132.462 39.0556 129.174 42.3171 127.418 46.512C125.663 50.7069 125.649 55.333 127.38 59.5381C129.111 63.7432 132.38 67.024 136.584 68.776C138.701 69.6586 140.928 70.1 143.156 70.1C145.351 70.1 147.546 69.6715 149.638 68.8143C153.623 67.1808 156.816 64.1336 158.629 60.2341C159.05 59.3398 158.665 58.2696 157.769 57.8469ZM137.53 39.383C137.528 39.3837 137.526 39.3844 137.525 39.3849C137.526 39.3844 137.528 39.3835 137.53 39.383ZM148.791 66.7568C141.228 69.8567 132.549 66.2392 129.442 58.693C126.474 51.4836 129.651 43.2561 136.541 39.8308C135.12 43.5442 135.165 47.6992 136.696 51.3937C138.296 55.2537 141.307 58.2608 145.173 59.8612C148.693 61.3179 152.538 61.4503 156.117 60.2586C154.488 63.1879 151.921 65.4738 148.791 66.7568Z" fill="#F4F4F4"/>
<path d="M157.685 36.8702H155.842L158.508 33.9628C158.806 33.6376 158.883 33.1672 158.705 32.7638C158.527 32.3603 158.127 32.1 157.685 32.1H153.312C152.697 32.1 152.198 32.5979 152.198 33.2121C152.198 33.8264 152.697 34.3243 153.312 34.3243H155.155L152.49 37.2318C152.192 37.557 152.114 38.0274 152.293 38.4308C152.471 38.8342 152.871 39.0946 153.313 39.0946H157.685C158.301 39.0946 158.8 38.5966 158.8 37.9824C158.8 37.3682 158.301 36.8702 157.685 36.8702Z" fill="#F4F4F4"/>
<path d="M144.057 40.3788C144.235 40.7822 144.635 41.0426 145.077 41.0426H148.572C149.187 41.0426 149.686 40.5447 149.686 39.9304C149.686 39.3162 149.187 38.8182 148.572 38.8182H147.607L149.394 36.8684C149.693 36.5431 149.77 36.0727 149.592 35.6694C149.414 35.2659 149.014 35.0056 148.572 35.0056H145.077C144.461 35.0056 143.962 35.5035 143.962 36.1177C143.962 36.732 144.461 37.2299 145.077 37.2299H146.042L144.254 39.1798C143.956 39.505 143.879 39.9754 144.057 40.3788Z" fill="#F4F4F4"/>
<path d="M151.264 46.9224C151.442 47.3259 151.843 47.5862 152.284 47.5862H155.779C156.395 47.5862 156.894 47.0883 156.894 46.4741C156.894 45.8598 156.395 45.3619 155.779 45.3619H154.814L156.602 43.412C156.9 43.0868 156.977 42.6164 156.799 42.213C156.621 41.8096 156.221 41.5492 155.779 41.5492H152.284C151.669 41.5492 151.17 42.0471 151.17 42.6614C151.17 43.2756 151.669 43.7735 152.284 43.7735H153.249L151.462 45.7234C151.164 46.0486 151.086 46.519 151.264 46.9224Z" fill="#F4F4F4"/>
</g>
<defs>
<filter id="filter0_ddddii_7_23" x="0" y="0" width="109.087" height="109" filterUnits="userSpaceOnUse" color-interpolation-filters="sRGB">
<feFlood flood-opacity="0" result="BackgroundImageFix"/>
<feColorMatrix in="SourceAlpha" type="matrix" values="0 0 0 0 0 0 0 0 0 0 0 0 0 0 0 0 0 0 127 0" result="hardAlpha"/>
<feOffset dx="5" dy="5"/>
<feGaussianBlur stdDeviation="6.5"/>
<feColorMatrix type="matrix" values="0 0 0 0 0.517647 0 0 0 0 0.486275 0 0 0 0 0.811765 0 0 0 0.9 0"/>
<feBlend mode="normal" in2="BackgroundImageFix" result="effect1_dropShadow_7_23"/>
<feColorMatrix in="SourceAlpha" type="matrix" values="0 0 0 0 0 0 0 0 0 0 0 0 0 0 0 0 0 0 127 0" result="hardAlpha"/>
<feOffset dx="-5" dy="-5"/>
<feGaussianBlur stdDeviation="5"/>
<feColorMatrix type="matrix" values="0 0 0 0 0.713726 0 0 0 0 0.67451 0 0 0 0 1 0 0 0 0.9 0"/>
<feBlend mode="normal" in2="effect1_dropShadow_7_23" result="effect2_dropShadow_7_23"/>
<feColorMatrix in="SourceAlpha" type="matrix" values="0 0 0 0 0 0 0 0 0 0 0 0 0 0 0 0 0 0 127 0" result="hardAlpha"/>
<feOffset dx="5" dy="-5"/>
<feGaussianBlur stdDeviation="5"/>
<feColorMatrix type="matrix" values="0 0 0 0 0.517647 0 0 0 0 0.486275 0 0 0 0 0.811765 0 0 0 0.2 0"/>
<feBlend mode="normal" in2="effect2_dropShadow_7_23" result="effect3_dropShadow_7_23"/>
<feColorMatrix in="SourceAlpha" type="matrix" values="0 0 0 0 0 0 0 0 0 0 0 0 0 0 0 0 0 0 127 0" result="hardAlpha"/>
<feOffset dx="-5" dy="5"/>
<feGaussianBlur stdDeviation="5"/>
<feColorMatrix type="matrix" values="0 0 0 0 0.517647 0 0 0 0 0.486275 0 0 0 0 0.811765 0 0 0 0.2 0"/>
<feBlend mode="normal" in2="effect3_dropShadow_7_23" result="effect4_dropShadow_7_23"/>
<feBlend mode="normal" in="SourceGraphic" in2="effect4_dropShadow_7_23" result="shape"/>
<feColorMatrix in="SourceAlpha" type="matrix" values="0 0 0 0 0 0 0 0 0 0 0 0 0 0 0 0 0 0 127 0" result="hardAlpha"/>
<feOffset dx="-1" dy="-1"/>
<feGaussianBlur stdDeviation="1"/>
<feComposite in2="hardAlpha" operator="arithmetic" k2="-1" k3="1"/>
<feColorMatrix type="matrix" values="0 0 0 0 0.517647 0 0 0 0 0.486275 0 0 0 0 0.811765 0 0 0 0.5 0"/>
<feBlend mode="normal" in2="shape" result="effect5_innerShadow_7_23"/>
<feColorMatrix in="SourceAlpha" type="matrix" values="0 0 0 0 0 0 0 0 0 0 0 0 0 0 0 0 0 0 127 0" result="hardAlpha"/>
<feOffset dx="1" dy="1"/>
<feGaussianBlur stdDeviation="1"/>
<feComposite in2="hardAlpha" operator="arithmetic" k2="-1" k3="1"/>
<feColorMatrix type="matrix" values="0 0 0 0 0.713726 0 0 0 0 0.67451 0 0 0 0 1 0 0 0 0.3 0"/>
<feBlend mode="normal" in2="effect5_innerShadow_7_23" result="effect6_innerShadow_7_23"/>
</filter>
<filter id="filter1_ddddii_7_23" x="91.3044" y="0" width="109.087" height="109" filterUnits="userSpaceOnUse" color-interpolation-filters="sRGB">
<feFlood flood-opacity="0" result="BackgroundImageFix"/>
<feColorMatrix in="SourceAlpha" type="matrix" values="0 0 0 0 0 0 0 0 0 0 0 0 0 0 0 0 0 0 127 0" result="hardAlpha"/>
<feOffset dx="5" dy="5"/>
<feGaussianBlur stdDeviation="6.5"/>
<feColorMatrix type="matrix" values="0 0 0 0 0.517647 0 0 0 0 0.486275 0 0 0 0 0.811765 0 0 0 0.9 0"/>
<feBlend mode="normal" in2="BackgroundImageFix" result="effect1_dropShadow_7_23"/>
<feColorMatrix in="SourceAlpha" type="matrix" values="0 0 0 0 0 0 0 0 0 0 0 0 0 0 0 0 0 0 127 0" result="hardAlpha"/>
<feOffset dx="-5" dy="-5"/>
<feGaussianBlur stdDeviation="5"/>
<feColorMatrix type="matrix" values="0 0 0 0 0.713726 0 0 0 0 0.67451 0 0 0 0 1 0 0 0 0.9 0"/>
<feBlend mode="normal" in2="effect1_dropShadow_7_23" result="effect2_dropShadow_7_23"/>
<feColorMatrix in="SourceAlpha" type="matrix" values="0 0 0 0 0 0 0 0 0 0 0 0 0 0 0 0 0 0 127 0" result="hardAlpha"/>
<feOffset dx="5" dy="-5"/>
<feGaussianBlur stdDeviation="5"/>
<feColorMatrix type="matrix" values="0 0 0 0 0.517647 0 0 0 0 0.486275 0 0 0 0 0.811765 0 0 0 0.2 0"/>
<feBlend mode="normal" in2="effect2_dropShadow_7_23" result="effect3_dropShadow_7_23"/>
<feColorMatrix in="SourceAlpha" type="matrix" values="0 0 0 0 0 0 0 0 0 0 0 0 0 0 0 0 0 0 127 0" result="hardAlpha"/>
<feOffset dx="-5" dy="5"/>
<feGaussianBlur stdDeviation="5"/>
<feColorMatrix type="matrix" values="0 0 0 0 0.517647 0 0 0 0 0.486275 0 0 0 0 0.811765 0 0 0 0.2 0"/>
<feBlend mode="normal" in2="effect3_dropShadow_7_23" result="effect4_dropShadow_7_23"/>
<feBlend mode="normal" in="SourceGraphic" in2="effect4_dropShadow_7_23" result="shape"/>
<feColorMatrix in="SourceAlpha" type="matrix" values="0 0 0 0 0 0 0 0 0 0 0 0 0 0 0 0 0 0 127 0" result="hardAlpha"/>
<feOffset dx="-1" dy="-1"/>
<feGaussianBlur stdDeviation="1"/>
<feComposite in2="hardAlpha" operator="arithmetic" k2="-1" k3="1"/>
<feColorMatrix type="matrix" values="0 0 0 0 0.517647 0 0 0 0 0.486275 0 0 0 0 0.811765 0 0 0 0.5 0"/>
<feBlend mode="normal" in2="shape" result="effect5_innerShadow_7_23"/>
<feColorMatrix in="SourceAlpha" type="matrix" values="0 0 0 0 0 0 0 0 0 0 0 0 0 0 0 0 0 0 127 0" result="hardAlpha"/>
<feOffset dx="1" dy="1"/>
<feGaussianBlur stdDeviation="1"/>
<feComposite in2="hardAlpha" operator="arithmetic" k2="-1" k3="1"/>
<feColorMatrix type="matrix" values="0 0 0 0 0.713726 0 0 0 0 0.67451 0 0 0 0 1 0 0 0 0.3 0"/>
<feBlend mode="normal" in2="effect5_innerShadow_7_23" result="effect6_innerShadow_7_23"/>
</filter>
<filter id="filter2_ddddii_7_23" x="182.609" y="0" width="109.087" height="109" filterUnits="userSpaceOnUse" color-interpolation-filters="sRGB">
<feFlood flood-opacity="0" result="BackgroundImageFix"/>
<feColorMatrix in="SourceAlpha" type="matrix" values="0 0 0 0 0 0 0 0 0 0 0 0 0 0 0 0 0 0 127 0" result="hardAlpha"/>
<feOffset dx="5" dy="5"/>
<feGaussianBlur stdDeviation="6.5"/>
<feColorMatrix type="matrix" values="0 0 0 0 0.517647 0 0 0 0 0.486275 0 0 0 0 0.811765 0 0 0 0.9 0"/>
<feBlend mode="normal" in2="BackgroundImageFix" result="effect1_dropShadow_7_23"/>
<feColorMatrix in="SourceAlpha" type="matrix" values="0 0 0 0 0 0 0 0 0 0 0 0 0 0 0 0 0 0 127 0" result="hardAlpha"/>
<feOffset dx="-5" dy="-5"/>
<feGaussianBlur stdDeviation="5"/>
<feColorMatrix type="matrix" values="0 0 0 0 0.713726 0 0 0 0 0.67451 0 0 0 0 1 0 0 0 0.9 0"/>
<feBlend mode="normal" in2="effect1_dropShadow_7_23" result="effect2_dropShadow_7_23"/>
<feColorMatrix in="SourceAlpha" type="matrix" values="0 0 0 0 0 0 0 0 0 0 0 0 0 0 0 0 0 0 127 0" result="hardAlpha"/>
<feOffset dx="5" dy="-5"/>
<feGaussianBlur stdDeviation="5"/>
<feColorMatrix type="matrix" values="0 0 0 0 0.517647 0 0 0 0 0.486275 0 0 0 0 0.811765 0 0 0 0.2 0"/>
<feBlend mode="normal" in2="effect2_dropShadow_7_23" result="effect3_dropShadow_7_23"/>
<feColorMatrix in="SourceAlpha" type="matrix" values="0 0 0 0 0 0 0 0 0 0 0 0 0 0 0 0 0 0 127 0" result="hardAlpha"/>
<feOffset dx="-5" dy="5"/>
<feGaussianBlur stdDeviation="5"/>
<feColorMatrix type="matrix" values="0 0 0 0 0.517647 0 0 0 0 0.486275 0 0 0 0 0.811765 0 0 0 0.2 0"/>
<feBlend mode="normal" in2="effect3_dropShadow_7_23" result="effect4_dropShadow_7_23"/>
<feBlend mode="normal" in="SourceGraphic" in2="effect4_dropShadow_7_23" result="shape"/>
<feColorMatrix in="SourceAlpha" type="matrix" values="0 0 0 0 0 0 0 0 0 0 0 0 0 0 0 0 0 0 127 0" result="hardAlpha"/>
<feOffset dx="-1" dy="-1"/>
<feGaussianBlur stdDeviation="1"/>
<feComposite in2="hardAlpha" operator="arithmetic" k2="-1" k3="1"/>
<feColorMatrix type="matrix" values="0 0 0 0 0.517647 0 0 0 0 0.486275 0 0 0 0 0.811765 0 0 0 0.5 0"/>
<feBlend mode="normal" in2="shape" result="effect5_innerShadow_7_23"/>
<feColorMatrix in="SourceAlpha" type="matrix" values="0 0 0 0 0 0 0 0 0 0 0 0 0 0 0 0 0 0 127 0" result="hardAlpha"/>
<feOffset dx="1" dy="1"/>
<feGaussianBlur stdDeviation="1"/>
<feComposite in2="hardAlpha" operator="arithmetic" k2="-1" k3="1"/>
<feColorMatrix type="matrix" values="0 0 0 0 0.713726 0 0 0 0 0.67451 0 0 0 0 1 0 0 0 0.3 0"/>
<feBlend mode="normal" in2="effect5_innerShadow_7_23" result="effect6_innerShadow_7_23"/>
</filter>
<filter id="filter3_ddddii_7_23" x="273.913" y="0" width="109.087" height="109" filterUnits="userSpaceOnUse" color-interpolation-filters="sRGB">
<feFlood flood-opacity="0" result="BackgroundImageFix"/>
<feColorMatrix in="SourceAlpha" type="matrix" values="0 0 0 0 0 0 0 0 0 0 0 0 0 0 0 0 0 0 127 0" result="hardAlpha"/>
<feOffset dx="5" dy="5"/>
<feGaussianBlur stdDeviation="6.5"/>
<feColorMatrix type="matrix" values="0 0 0 0 0.517647 0 0 0 0 0.486275 0 0 0 0 0.811765 0 0 0 0.9 0"/>
<feBlend mode="normal" in2="BackgroundImageFix" result="effect1_dropShadow_7_23"/>
<feColorMatrix in="SourceAlpha" type="matrix" values="0 0 0 0 0 0 0 0 0 0 0 0 0 0 0 0 0 0 127 0" result="hardAlpha"/>
<feOffset dx="-5" dy="-5"/>
<feGaussianBlur stdDeviation="5"/>
<feColorMatrix type="matrix" values="0 0 0 0 0.713726 0 0 0 0 0.67451 0 0 0 0 1 0 0 0 0.9 0"/>
<feBlend mode="normal" in2="effect1_dropShadow_7_23" result="effect2_dropShadow_7_23"/>
<feColorMatrix in="SourceAlpha" type="matrix" values="0 0 0 0 0 0 0 0 0 0 0 0 0 0 0 0 0 0 127 0" result="hardAlpha"/>
<feOffset dx="5" dy="-5"/>
<feGaussianBlur stdDeviation="5"/>
<feColorMatrix type="matrix" values="0 0 0 0 0.517647 0 0 0 0 0.486275 0 0 0 0 0.811765 0 0 0 0.2 0"/>
<feBlend mode="normal" in2="effect2_dropShadow_7_23" result="effect3_dropShadow_7_23"/>
<feColorMatrix in="SourceAlpha" type="matrix" values="0 0 0 0 0 0 0 0 0 0 0 0 0 0 0 0 0 0 127 0" result="hardAlpha"/>
<feOffset dx="-5" dy="5"/>
<feGaussianBlur stdDeviation="5"/>
<feColorMatrix type="matrix" values="0 0 0 0 0.517647 0 0 0 0 0.486275 0 0 0 0 0.811765 0 0 0 0.2 0"/>
<feBlend mode="normal" in2="effect3_dropShadow_7_23" result="effect4_dropShadow_7_23"/>
<feBlend mode="normal" in="SourceGraphic" in2="effect4_dropShadow_7_23" result="shape"/>
<feColorMatrix in="SourceAlpha" type="matrix" values="0 0 0 0 0 0 0 0 0 0 0 0 0 0 0 0 0 0 127 0" result="hardAlpha"/>
<feOffset dx="-1" dy="-1"/>
<feGaussianBlur stdDeviation="1"/>
<feComposite in2="hardAlpha" operator="arithmetic" k2="-1" k3="1"/>
<feColorMatrix type="matrix" values="0 0 0 0 0.517647 0 0 0 0 0.486275 0 0 0 0 0.811765 0 0 0 0.5 0"/>
<feBlend mode="normal" in2="shape" result="effect5_innerShadow_7_23"/>
<feColorMatrix in="SourceAlpha" type="matrix" values="0 0 0 0 0 0 0 0 0 0 0 0 0 0 0 0 0 0 127 0" result="hardAlpha"/>
<feOffset dx="1" dy="1"/>
<feGaussianBlur stdDeviation="1"/>
<feComposite in2="hardAlpha" operator="arithmetic" k2="-1" k3="1"/>
<feColorMatrix type="matrix" values="0 0 0 0 0.713726 0 0 0 0 0.67451 0 0 0 0 1 0 0 0 0.3 0"/>
<feBlend mode="normal" in2="effect5_innerShadow_7_23" result="effect6_innerShadow_7_23"/>
</filter>
<linearGradient id="paint0_linear_7_23" x1="15" y1="15" x2="91" y2="91.0869" gradientUnits="userSpaceOnUse">
<stop stop-color="#A59BFF"/>
<stop offset="1" stop-color="#958DEE"/>
</linearGradient>
<linearGradient id="paint1_linear_7_23" x1="106.304" y1="15" x2="182.304" y2="91.0869" gradientUnits="userSpaceOnUse">
<stop stop-color="#A59BFF"/>
<stop offset="1" stop-color="#958DEE"/>
</linearGradient>
<linearGradient id="paint2_linear_7_23" x1="197.609" y1="15" x2="273.609" y2="91.0869" gradientUnits="userSpaceOnUse">
<stop stop-color="#A59BFF"/>
<stop offset="1" stop-color="#958DEE"/>
</linearGradient>
<linearGradient id="paint3_linear_7_23" x1="288.913" y1="15" x2="364.913" y2="91.0869" gradientUnits="userSpaceOnUse">
<stop stop-color="#A59BFF"/>
<stop offset="1" stop-color="#958DEE"/>
</linearGradient>
<clipPath id="clip0_7_23">
<rect width="38.0435" height="38" fill="white" transform="translate(32.1196 32.1)"/>
</clipPath>
<clipPath id="clip1_7_23">
<rect width="38.0435" height="38" fill="white" transform="translate(123.424 32.1)"/>
</clipPath>
<clipPath id="clip2_7_23">
<rect width="38.0435" height="38" fill="white" transform="translate(215.679 31.15)"/>
</clipPath>
<clipPath id="clip3_7_23">
<rect width="38.0435" height="38.0001" fill="white" transform="translate(309.837 33.0499)"/>
</clipPath>
</defs>
</svg>
