<svg width="109" height="109" viewBox="181.058 -1.489600000000003 109 109" fill="none" xmlns="http://www.w3.org/2000/svg">
<g filter="url(#filter2_ddddii_7_56)">
<ellipse cx="235.558" cy="53.0104" rx="38.0273" ry="37.9896" fill="url(#paint2_linear_7_56)"/>
</g>
<g clip-path="url(#clip2_7_56)">
<path d="M250.121 34.4904H233.414C231.484 34.4904 229.914 36.0593 229.914 37.9876V48.694L226.812 47.1529C226.707 47.1007 226.601 47.0514 226.493 47.0048C227.404 46.055 227.965 44.7681 227.965 43.3522C227.965 40.4379 225.592 38.0667 222.675 38.0667C219.757 38.0667 217.384 40.4379 217.384 43.3522C217.384 44.9359 218.086 46.3584 219.194 47.3279C217.153 48.4751 215.594 50.713 215.594 53.4853V57.0616C215.594 58.6012 216.595 59.9116 217.981 60.3773V66.5987C217.981 67.2132 218.479 67.7117 219.095 67.7117H226.254C226.87 67.7117 227.369 67.2132 227.369 66.5987V54.0936L230.935 55.875C232.3 56.5567 234.152 56.1503 234.989 54.5982H238.984L234.754 66.2182C234.544 66.7958 234.842 67.4346 235.42 67.6445C236.081 67.8847 236.669 67.4706 236.848 66.979L241.355 54.5982H242.136L246.688 66.9825C246.861 67.4523 247.445 67.8905 248.118 67.6433C248.696 67.4314 248.992 66.792 248.78 66.215L244.509 54.5982H250.121C252.014 54.5982 253.621 53.0728 253.621 51.1011V37.9876C253.621 36.0155 252.014 34.4904 250.121 34.4904V34.4904ZM219.612 43.3522C219.612 41.6651 220.986 40.2927 222.675 40.2927C224.363 40.2927 225.737 41.6651 225.737 43.3522C225.737 45.0391 224.363 46.4115 222.675 46.4115C220.986 46.4115 219.612 45.0391 219.612 43.3522ZM233.085 53.4082C233.082 53.4163 233.079 53.4247 233.077 53.4331C233.001 53.645 232.829 53.8235 232.619 53.9099C232.396 54.0003 232.146 53.9907 231.932 53.8841C229.813 52.8253 226.752 51.2976 226.752 51.2976C226.013 50.9283 225.14 51.4663 225.14 52.2932V65.4857H220.209V59.4458C220.209 58.8313 219.71 58.3328 219.095 58.3328C218.393 58.3328 217.822 57.7627 217.822 57.0616V53.4853C217.822 50.7657 220.039 48.6377 222.675 48.6377H223.659C224.406 48.6377 225.152 48.8128 225.818 49.1452C225.818 49.1452 231.344 51.8906 232.752 52.5908C233.053 52.7404 233.196 53.0917 233.085 53.4082ZM251.393 51.1011C251.393 51.441 251.261 51.7602 251.021 52.0001C250.785 52.2366 250.456 52.3723 250.121 52.3723H235.232C235.23 52.3662 235.228 52.3601 235.226 52.3543L237.991 46.8303C238.266 46.2805 238.043 45.6121 237.493 45.337C236.943 45.0623 236.273 45.2849 235.998 45.8347L233.64 50.546C233.2 50.3272 232.689 50.073 232.142 49.8011V37.9876C232.142 37.2868 232.713 36.7164 233.414 36.7164H250.121C250.456 36.7164 250.785 36.852 251.021 37.0891C251.261 37.3285 251.393 37.6476 251.393 37.9876V51.1011Z" fill="#F4F4F4"/>
<path d="M247.734 39.2589H235.801C235.186 39.2589 234.687 39.7571 234.687 40.3718C234.687 40.9866 235.186 41.4848 235.801 41.4848H247.734C248.349 41.4848 248.848 40.9866 248.848 40.3718C248.848 39.7571 248.35 39.2589 247.734 39.2589Z" fill="#F4F4F4"/>
<path d="M247.734 43.4314H241.767C241.152 43.4314 240.653 43.9296 240.653 44.5444C240.653 45.1591 241.152 45.6574 241.767 45.6574H247.734C248.349 45.6574 248.848 45.1591 248.848 44.5444C248.848 43.9296 248.35 43.4314 247.734 43.4314Z" fill="#F4F4F4"/>
<path d="M247.734 47.6039H241.767C241.152 47.6039 240.653 48.1021 240.653 48.7169C240.653 49.3313 241.152 49.8298 241.767 49.8298H247.734C248.349 49.8298 248.848 49.3313 248.848 48.7169C248.848 48.1021 248.35 47.6039 247.734 47.6039Z" fill="#F4F4F4"/>
</g>
<defs>
<filter id="filter0_ddddii_7_56" x="0" y="0.020752" width="109.055" height="108.979" filterUnits="userSpaceOnUse" color-interpolation-filters="sRGB">
<feFlood flood-opacity="0" result="BackgroundImageFix"/>
<feColorMatrix in="SourceAlpha" type="matrix" values="0 0 0 0 0 0 0 0 0 0 0 0 0 0 0 0 0 0 127 0" result="hardAlpha"/>
<feOffset dx="5" dy="5"/>
<feGaussianBlur stdDeviation="6.5"/>
<feColorMatrix type="matrix" values="0 0 0 0 0.517647 0 0 0 0 0.486275 0 0 0 0 0.811765 0 0 0 0.9 0"/>
<feBlend mode="normal" in2="BackgroundImageFix" result="effect1_dropShadow_7_56"/>
<feColorMatrix in="SourceAlpha" type="matrix" values="0 0 0 0 0 0 0 0 0 0 0 0 0 0 0 0 0 0 127 0" result="hardAlpha"/>
<feOffset dx="-5" dy="-5"/>
<feGaussianBlur stdDeviation="5"/>
<feColorMatrix type="matrix" values="0 0 0 0 0.713726 0 0 0 0 0.67451 0 0 0 0 1 0 0 0 0.9 0"/>
<feBlend mode="normal" in2="effect1_dropShadow_7_56" result="effect2_dropShadow_7_56"/>
<feColorMatrix in="SourceAlpha" type="matrix" values="0 0 0 0 0 0 0 0 0 0 0 0 0 0 0 0 0 0 127 0" result="hardAlpha"/>
<feOffset dx="5" dy="-5"/>
<feGaussianBlur stdDeviation="5"/>
<feColorMatrix type="matrix" values="0 0 0 0 0.517647 0 0 0 0 0.486275 0 0 0 0 0.811765 0 0 0 0.2 0"/>
<feBlend mode="normal" in2="effect2_dropShadow_7_56" result="effect3_dropShadow_7_56"/>
<feColorMatrix in="SourceAlpha" type="matrix" values="0 0 0 0 0 0 0 0 0 0 0 0 0 0 0 0 0 0 127 0" result="hardAlpha"/>
<feOffset dx="-5" dy="5"/>
<feGaussianBlur stdDeviation="5"/>
<feColorMatrix type="matrix" values="0 0 0 0 0.517647 0 0 0 0 0.486275 0 0 0 0 0.811765 0 0 0 0.2 0"/>
<feBlend mode="normal" in2="effect3_dropShadow_7_56" result="effect4_dropShadow_7_56"/>
<feBlend mode="normal" in="SourceGraphic" in2="effect4_dropShadow_7_56" result="shape"/>
<feColorMatrix in="SourceAlpha" type="matrix" values="0 0 0 0 0 0 0 0 0 0 0 0 0 0 0 0 0 0 127 0" result="hardAlpha"/>
<feOffset dx="-1" dy="-1"/>
<feGaussianBlur stdDeviation="1"/>
<feComposite in2="hardAlpha" operator="arithmetic" k2="-1" k3="1"/>
<feColorMatrix type="matrix" values="0 0 0 0 0.517647 0 0 0 0 0.486275 0 0 0 0 0.811765 0 0 0 0.5 0"/>
<feBlend mode="normal" in2="shape" result="effect5_innerShadow_7_56"/>
<feColorMatrix in="SourceAlpha" type="matrix" values="0 0 0 0 0 0 0 0 0 0 0 0 0 0 0 0 0 0 127 0" result="hardAlpha"/>
<feOffset dx="1" dy="1"/>
<feGaussianBlur stdDeviation="1"/>
<feComposite in2="hardAlpha" operator="arithmetic" k2="-1" k3="1"/>
<feColorMatrix type="matrix" values="0 0 0 0 0.713726 0 0 0 0 0.67451 0 0 0 0 1 0 0 0 0.3 0"/>
<feBlend mode="normal" in2="effect5_innerShadow_7_56" result="effect6_innerShadow_7_56"/>
</filter>
<filter id="filter1_ddddii_7_56" x="91.2656" y="0.020752" width="109.055" height="108.979" filterUnits="userSpaceOnUse" color-interpolation-filters="sRGB">
<feFlood flood-opacity="0" result="BackgroundImageFix"/>
<feColorMatrix in="SourceAlpha" type="matrix" values="0 0 0 0 0 0 0 0 0 0 0 0 0 0 0 0 0 0 127 0" result="hardAlpha"/>
<feOffset dx="5" dy="5"/>
<feGaussianBlur stdDeviation="6.5"/>
<feColorMatrix type="matrix" values="0 0 0 0 0.517647 0 0 0 0 0.486275 0 0 0 0 0.811765 0 0 0 0.9 0"/>
<feBlend mode="normal" in2="BackgroundImageFix" result="effect1_dropShadow_7_56"/>
<feColorMatrix in="SourceAlpha" type="matrix" values="0 0 0 0 0 0 0 0 0 0 0 0 0 0 0 0 0 0 127 0" result="hardAlpha"/>
<feOffset dx="-5" dy="-5"/>
<feGaussianBlur stdDeviation="5"/>
<feColorMatrix type="matrix" values="0 0 0 0 0.713726 0 0 0 0 0.67451 0 0 0 0 1 0 0 0 0.9 0"/>
<feBlend mode="normal" in2="effect1_dropShadow_7_56" result="effect2_dropShadow_7_56"/>
<feColorMatrix in="SourceAlpha" type="matrix" values="0 0 0 0 0 0 0 0 0 0 0 0 0 0 0 0 0 0 127 0" result="hardAlpha"/>
<feOffset dx="5" dy="-5"/>
<feGaussianBlur stdDeviation="5"/>
<feColorMatrix type="matrix" values="0 0 0 0 0.517647 0 0 0 0 0.486275 0 0 0 0 0.811765 0 0 0 0.2 0"/>
<feBlend mode="normal" in2="effect2_dropShadow_7_56" result="effect3_dropShadow_7_56"/>
<feColorMatrix in="SourceAlpha" type="matrix" values="0 0 0 0 0 0 0 0 0 0 0 0 0 0 0 0 0 0 127 0" result="hardAlpha"/>
<feOffset dx="-5" dy="5"/>
<feGaussianBlur stdDeviation="5"/>
<feColorMatrix type="matrix" values="0 0 0 0 0.517647 0 0 0 0 0.486275 0 0 0 0 0.811765 0 0 0 0.2 0"/>
<feBlend mode="normal" in2="effect3_dropShadow_7_56" result="effect4_dropShadow_7_56"/>
<feBlend mode="normal" in="SourceGraphic" in2="effect4_dropShadow_7_56" result="shape"/>
<feColorMatrix in="SourceAlpha" type="matrix" values="0 0 0 0 0 0 0 0 0 0 0 0 0 0 0 0 0 0 127 0" result="hardAlpha"/>
<feOffset dx="-1" dy="-1"/>
<feGaussianBlur stdDeviation="1"/>
<feComposite in2="hardAlpha" operator="arithmetic" k2="-1" k3="1"/>
<feColorMatrix type="matrix" values="0 0 0 0 0.517647 0 0 0 0 0.486275 0 0 0 0 0.811765 0 0 0 0.5 0"/>
<feBlend mode="normal" in2="shape" result="effect5_innerShadow_7_56"/>
<feColorMatrix in="SourceAlpha" type="matrix" values="0 0 0 0 0 0 0 0 0 0 0 0 0 0 0 0 0 0 127 0" result="hardAlpha"/>
<feOffset dx="1" dy="1"/>
<feGaussianBlur stdDeviation="1"/>
<feComposite in2="hardAlpha" operator="arithmetic" k2="-1" k3="1"/>
<feColorMatrix type="matrix" values="0 0 0 0 0.713726 0 0 0 0 0.67451 0 0 0 0 1 0 0 0 0.3 0"/>
<feBlend mode="normal" in2="effect5_innerShadow_7_56" result="effect6_innerShadow_7_56"/>
</filter>
<filter id="filter2_ddddii_7_56" x="182.531" y="0.020752" width="109.055" height="108.979" filterUnits="userSpaceOnUse" color-interpolation-filters="sRGB">
<feFlood flood-opacity="0" result="BackgroundImageFix"/>
<feColorMatrix in="SourceAlpha" type="matrix" values="0 0 0 0 0 0 0 0 0 0 0 0 0 0 0 0 0 0 127 0" result="hardAlpha"/>
<feOffset dx="5" dy="5"/>
<feGaussianBlur stdDeviation="6.5"/>
<feColorMatrix type="matrix" values="0 0 0 0 0.517647 0 0 0 0 0.486275 0 0 0 0 0.807843 0 0 0 0.9 0"/>
<feBlend mode="normal" in2="BackgroundImageFix" result="effect1_dropShadow_7_56"/>
<feColorMatrix in="SourceAlpha" type="matrix" values="0 0 0 0 0 0 0 0 0 0 0 0 0 0 0 0 0 0 127 0" result="hardAlpha"/>
<feOffset dx="-5" dy="-5"/>
<feGaussianBlur stdDeviation="5"/>
<feColorMatrix type="matrix" values="0 0 0 0 0.713726 0 0 0 0 0.67451 0 0 0 0 1 0 0 0 0.9 0"/>
<feBlend mode="normal" in2="effect1_dropShadow_7_56" result="effect2_dropShadow_7_56"/>
<feColorMatrix in="SourceAlpha" type="matrix" values="0 0 0 0 0 0 0 0 0 0 0 0 0 0 0 0 0 0 127 0" result="hardAlpha"/>
<feOffset dx="5" dy="-5"/>
<feGaussianBlur stdDeviation="5"/>
<feColorMatrix type="matrix" values="0 0 0 0 0.517647 0 0 0 0 0.486275 0 0 0 0 0.807843 0 0 0 0.2 0"/>
<feBlend mode="normal" in2="effect2_dropShadow_7_56" result="effect3_dropShadow_7_56"/>
<feColorMatrix in="SourceAlpha" type="matrix" values="0 0 0 0 0 0 0 0 0 0 0 0 0 0 0 0 0 0 127 0" result="hardAlpha"/>
<feOffset dx="-5" dy="5"/>
<feGaussianBlur stdDeviation="5"/>
<feColorMatrix type="matrix" values="0 0 0 0 0.517647 0 0 0 0 0.486275 0 0 0 0 0.807843 0 0 0 0.2 0"/>
<feBlend mode="normal" in2="effect3_dropShadow_7_56" result="effect4_dropShadow_7_56"/>
<feBlend mode="normal" in="SourceGraphic" in2="effect4_dropShadow_7_56" result="shape"/>
<feColorMatrix in="SourceAlpha" type="matrix" values="0 0 0 0 0 0 0 0 0 0 0 0 0 0 0 0 0 0 127 0" result="hardAlpha"/>
<feOffset dx="-1" dy="-1"/>
<feGaussianBlur stdDeviation="1"/>
<feComposite in2="hardAlpha" operator="arithmetic" k2="-1" k3="1"/>
<feColorMatrix type="matrix" values="0 0 0 0 0.517647 0 0 0 0 0.486275 0 0 0 0 0.807843 0 0 0 0.5 0"/>
<feBlend mode="normal" in2="shape" result="effect5_innerShadow_7_56"/>
<feColorMatrix in="SourceAlpha" type="matrix" values="0 0 0 0 0 0 0 0 0 0 0 0 0 0 0 0 0 0 127 0" result="hardAlpha"/>
<feOffset dx="1" dy="1"/>
<feGaussianBlur stdDeviation="1"/>
<feComposite in2="hardAlpha" operator="arithmetic" k2="-1" k3="1"/>
<feColorMatrix type="matrix" values="0 0 0 0 0.713726 0 0 0 0 0.67451 0 0 0 0 1 0 0 0 0.3 0"/>
<feBlend mode="normal" in2="effect5_innerShadow_7_56" result="effect6_innerShadow_7_56"/>
</filter>
<filter id="filter3_ddddii_7_56" x="273.945" y="0" width="109.055" height="108.979" filterUnits="userSpaceOnUse" color-interpolation-filters="sRGB">
<feFlood flood-opacity="0" result="BackgroundImageFix"/>
<feColorMatrix in="SourceAlpha" type="matrix" values="0 0 0 0 0 0 0 0 0 0 0 0 0 0 0 0 0 0 127 0" result="hardAlpha"/>
<feOffset dx="5" dy="5"/>
<feGaussianBlur stdDeviation="6.5"/>
<feColorMatrix type="matrix" values="0 0 0 0 0.517647 0 0 0 0 0.486275 0 0 0 0 0.811765 0 0 0 0.9 0"/>
<feBlend mode="normal" in2="BackgroundImageFix" result="effect1_dropShadow_7_56"/>
<feColorMatrix in="SourceAlpha" type="matrix" values="0 0 0 0 0 0 0 0 0 0 0 0 0 0 0 0 0 0 127 0" result="hardAlpha"/>
<feOffset dx="-5" dy="-5"/>
<feGaussianBlur stdDeviation="5"/>
<feColorMatrix type="matrix" values="0 0 0 0 0.713726 0 0 0 0 0.67451 0 0 0 0 1 0 0 0 0.9 0"/>
<feBlend mode="normal" in2="effect1_dropShadow_7_56" result="effect2_dropShadow_7_56"/>
<feColorMatrix in="SourceAlpha" type="matrix" values="0 0 0 0 0 0 0 0 0 0 0 0 0 0 0 0 0 0 127 0" result="hardAlpha"/>
<feOffset dx="5" dy="-5"/>
<feGaussianBlur stdDeviation="5"/>
<feColorMatrix type="matrix" values="0 0 0 0 0.517647 0 0 0 0 0.486275 0 0 0 0 0.811765 0 0 0 0.2 0"/>
<feBlend mode="normal" in2="effect2_dropShadow_7_56" result="effect3_dropShadow_7_56"/>
<feColorMatrix in="SourceAlpha" type="matrix" values="0 0 0 0 0 0 0 0 0 0 0 0 0 0 0 0 0 0 127 0" result="hardAlpha"/>
<feOffset dx="-5" dy="5"/>
<feGaussianBlur stdDeviation="5"/>
<feColorMatrix type="matrix" values="0 0 0 0 0.517647 0 0 0 0 0.486275 0 0 0 0 0.811765 0 0 0 0.2 0"/>
<feBlend mode="normal" in2="effect3_dropShadow_7_56" result="effect4_dropShadow_7_56"/>
<feBlend mode="normal" in="SourceGraphic" in2="effect4_dropShadow_7_56" result="shape"/>
<feColorMatrix in="SourceAlpha" type="matrix" values="0 0 0 0 0 0 0 0 0 0 0 0 0 0 0 0 0 0 127 0" result="hardAlpha"/>
<feOffset dx="-1" dy="-1"/>
<feGaussianBlur stdDeviation="1"/>
<feComposite in2="hardAlpha" operator="arithmetic" k2="-1" k3="1"/>
<feColorMatrix type="matrix" values="0 0 0 0 0.517647 0 0 0 0 0.486275 0 0 0 0 0.811765 0 0 0 0.5 0"/>
<feBlend mode="normal" in2="shape" result="effect5_innerShadow_7_56"/>
<feColorMatrix in="SourceAlpha" type="matrix" values="0 0 0 0 0 0 0 0 0 0 0 0 0 0 0 0 0 0 127 0" result="hardAlpha"/>
<feOffset dx="1" dy="1"/>
<feGaussianBlur stdDeviation="1"/>
<feComposite in2="hardAlpha" operator="arithmetic" k2="-1" k3="1"/>
<feColorMatrix type="matrix" values="0 0 0 0 0.713726 0 0 0 0 0.67451 0 0 0 0 1 0 0 0 0.3 0"/>
<feBlend mode="normal" in2="effect5_innerShadow_7_56" result="effect6_innerShadow_7_56"/>
</filter>
<linearGradient id="paint0_linear_7_56" x1="15" y1="15.0208" x2="90.9792" y2="91.0753" gradientUnits="userSpaceOnUse">
<stop stop-color="#A59BFF"/>
<stop offset="1" stop-color="#958DEE"/>
</linearGradient>
<linearGradient id="paint1_linear_7_56" x1="106.266" y1="15.0208" x2="182.245" y2="91.0754" gradientUnits="userSpaceOnUse">
<stop stop-color="#A59BFF"/>
<stop offset="1" stop-color="#958DEE"/>
</linearGradient>
<linearGradient id="paint2_linear_7_56" x1="197.531" y1="15.0208" x2="273.51" y2="91.0753" gradientUnits="userSpaceOnUse">
<stop stop-color="#A59BFF"/>
<stop offset="1" stop-color="#958DEB"/>
</linearGradient>
<linearGradient id="paint3_linear_7_56" x1="288.945" y1="15" x2="364.925" y2="91.0546" gradientUnits="userSpaceOnUse">
<stop stop-color="#A59BFF"/>
<stop offset="1" stop-color="#958DEE"/>
</linearGradient>
<clipPath id="clip0_7_56">
<rect width="38.0273" height="37.9897" fill="white" transform="translate(32.1123 32.1161)"/>
</clipPath>
<clipPath id="clip1_7_56">
<rect width="38.0273" height="37.9895" fill="white" transform="translate(125.279 33.0659)"/>
</clipPath>
<clipPath id="clip2_7_56">
<rect width="38.0273" height="37.9897" fill="white" transform="translate(215.594 32.1161)"/>
</clipPath>
<clipPath id="clip3_7_56">
<rect width="38.0273" height="37.9897" fill="white" transform="translate(305.909 32.1161)"/>
</clipPath>
</defs>
</svg>
