<svg width="86" height="86" viewBox="283.9 10 86 86" fill="none" xmlns="http://www.w3.org/2000/svg">
<g filter="url(#filter0_ddddii_7_23)">
<ellipse cx="53.0435" cy="53" rx="38.0435" ry="38" fill="url(#paint0_linear_7_23)"/>
</g>
<g clip-path="url(#clip0_7_23)">
<path d="M54.0005 33.3646C54.0005 32.6663 54.5672 32.1 55.2664 32.1C55.4675 32.1 57.2864 32.1335 59.1439 33.2931C60.8784 34.3759 62.9457 36.6564 62.9457 41.3722V54.1848C62.9457 54.8831 62.3787 55.4494 61.6797 55.4494H60.7103V66.8123C60.7103 68.6253 59.2338 70.1001 57.4187 70.1001H57.2922C55.4771 70.1001 54.0006 68.6253 54.0006 66.8123V33.3646H54.0005ZM60.4137 41.3722C60.4137 38.5642 59.5635 36.5858 57.8867 35.4917C57.4203 35.1877 56.9467 34.9907 56.5325 34.8631V52.9202H60.4137V41.3722ZM57.2922 67.5708H57.4187C57.8303 67.5708 58.1783 67.2233 58.1783 66.812V55.4491H56.5323V66.812C56.5323 67.2234 56.8804 67.5708 57.2922 67.5708Z" fill="#F4F4F4"/>
<path d="M40.6024 32.1C41.3016 32.1 41.8686 32.6663 41.8686 33.3646V40.7965C41.8686 41.7727 42.6636 42.5669 43.6409 42.5669H43.7026V33.3646C43.7026 32.6663 44.2693 32.1 44.9685 32.1C45.6678 32.1 46.2345 32.6663 46.2345 33.3646V42.5669H46.2962C47.2734 42.5669 48.0688 41.7727 48.0688 40.7965V33.3646C48.0688 32.6663 48.6354 32.1 49.3347 32.1C50.0337 32.1 50.6006 32.6663 50.6006 33.3646V40.7965C50.6006 43.1672 48.6698 45.0959 46.2962 45.0959H46.2345V53.1933C47.4564 53.6743 48.3235 54.864 48.3235 56.253V66.812C48.3235 68.625 46.847 70.0999 45.0319 70.0999H44.9054C43.0903 70.0999 41.6138 68.625 41.6138 66.812V56.253C41.6138 54.8639 42.481 53.6743 43.7029 53.1933V45.0959H43.6411C41.2677 45.0959 39.3367 43.1672 39.3367 40.7965V33.3646C39.3364 32.6663 39.9034 32.1 40.6024 32.1ZM44.1457 66.8122C44.1457 67.2234 44.4934 67.5709 44.9053 67.5709H45.0318C45.4436 67.5709 45.7914 67.2234 45.7914 66.8122V56.2531C45.7914 55.8419 45.4436 55.4944 45.0318 55.4944H44.9053C44.4934 55.4944 44.1457 55.8419 44.1457 56.2531V66.8122Z" fill="#F4F4F4"/>
</g>
<g filter="url(#filter1_ddddii_7_23)">
<ellipse cx="144.348" cy="53" rx="38.0435" ry="38" fill="url(#paint1_linear_7_23)"/>
</g>
<g clip-path="url(#clip1_7_23)">
<path d="M157.769 57.8469C157.309 57.6295 156.775 57.6173 156.305 57.8134C156.284 57.8223 156.263 57.8317 156.243 57.8418C152.944 59.181 149.32 59.1692 146.027 57.8066C142.711 56.4338 140.129 53.8543 138.756 50.5434C137.321 47.0807 137.408 43.1466 138.991 39.7557C139.197 39.3219 139.221 38.8343 139.059 38.3826C138.897 37.9309 138.568 37.5693 138.134 37.3643C137.674 37.1469 137.14 37.1345 136.676 37.3281C132.462 39.0556 129.174 42.3171 127.418 46.512C125.663 50.7069 125.649 55.333 127.38 59.5381C129.111 63.7432 132.38 67.024 136.584 68.776C138.701 69.6586 140.928 70.1 143.156 70.1C145.351 70.1 147.546 69.6715 149.638 68.8143C153.623 67.1808 156.816 64.1336 158.629 60.2341C159.05 59.3398 158.665 58.2696 157.769 57.8469ZM137.53 39.383C137.528 39.3837 137.526 39.3844 137.525 39.3849C137.526 39.3844 137.528 39.3835 137.53 39.383ZM148.791 66.7568C141.228 69.8567 132.549 66.2392 129.442 58.693C126.474 51.4836 129.651 43.2561 136.541 39.8308C135.12 43.5442 135.165 47.6992 136.696 51.3937C138.296 55.2537 141.307 58.2608 145.173 59.8612C148.693 61.3179 152.538 61.4503 156.117 60.2586C154.488 63.1879 151.921 65.4738 148.791 66.7568Z" fill="#F4F4F4"/>
<path d="M157.685 36.8702H155.842L158.508 33.9628C158.806 33.6376 158.883 33.1672 158.705 32.7638C158.527 32.3603 158.127 32.1 157.685 32.1H153.312C152.697 32.1 152.198 32.5979 152.198 33.2121C152.198 33.8264 152.697 34.3243 153.312 34.3243H155.155L152.49 37.2318C152.192 37.557 152.114 38.0274 152.293 38.4308C152.471 38.8342 152.871 39.0946 153.313 39.0946H157.685C158.301 39.0946 158.8 38.5966 158.8 37.9824C158.8 37.3682 158.301 36.8702 157.685 36.8702Z" fill="#F4F4F4"/>
<path d="M144.057 40.3788C144.235 40.7822 144.635 41.0426 145.077 41.0426H148.572C149.187 41.0426 149.686 40.5447 149.686 39.9304C149.686 39.3162 149.187 38.8182 148.572 38.8182H147.607L149.394 36.8684C149.693 36.5431 149.77 36.0727 149.592 35.6694C149.414 35.2659 149.014 35.0056 148.572 35.0056H145.077C144.461 35.0056 143.962 35.5035 143.962 36.1177C143.962 36.732 144.461 37.2299 145.077 37.2299H146.042L144.254 39.1798C143.956 39.505 143.879 39.9754 144.057 40.3788Z" fill="#F4F4F4"/>
<path d="M151.264 46.9224C151.442 47.3259 151.843 47.5862 152.284 47.5862H155.779C156.395 47.5862 156.894 47.0883 156.894 46.4741C156.894 45.8598 156.395 45.3619 155.779 45.3619H154.814L156.602 43.412C156.9 43.0868 156.977 42.6164 156.799 42.213C156.621 41.8096 156.221 41.5492 155.779 41.5492H152.284C151.669 41.5492 151.17 42.0471 151.17 42.6614C151.17 43.2756 151.669 43.7735 152.284 43.7735H153.249L151.462 45.7234C151.164 46.0486 151.086 46.519 151.264 46.9224Z" fill="#F4F4F4"/>
</g>
<g filter="url(#filter2_ddddii_7_23)">
<ellipse cx="235.652" cy="53" rx="38.0435" ry="38" fill="url(#paint2_linear_7_23)"/>
</g>
<g clip-path="url(#clip2_7_23)">
<path d="M253.605 58.9919L252.04 50.4885C251.537 46.6017 248.207 43.675 244.281 43.675H225.121C221.195 43.675 217.865 46.6017 217.362 50.4885L215.797 58.9919C215.019 63.2198 218.209 67.1681 222.49 67.3397C226.568 67.5028 229.844 64.1771 229.857 60.2088C229.857 60.1946 229.397 60.1995 239.545 60.1995C239.545 64.1543 242.822 67.5038 246.913 67.3397C251.173 67.1689 254.387 63.2401 253.605 58.9919ZM249.409 64.2329C247.572 65.5253 245.026 65.4155 243.307 63.7658C242.337 62.8348 241.78 61.5301 241.78 60.1858C241.78 58.9862 240.79 57.9666 239.545 57.9666H229.857C228.612 57.9666 227.622 58.986 227.622 60.1858C227.622 62.9095 225.382 65.2206 222.579 65.1085C220.016 65.0058 217.992 62.9108 217.911 60.3925C217.891 59.762 217.868 60.0863 219.566 50.8619C219.57 50.8409 219.573 50.8198 219.576 50.7985C219.925 48.0104 222.309 45.908 225.121 45.908H244.28C247.093 45.908 249.477 48.0104 249.826 50.7985C249.832 50.8476 249.721 50.2406 251.406 59.3957C251.763 61.332 250.893 63.189 249.409 64.2329Z" fill="#F4F4F4"/>
<path d="M229.336 51.4163H227.473V49.5554C227.473 48.9388 226.972 48.4389 226.355 48.4389C225.737 48.4389 225.237 48.9388 225.237 49.5554V51.4163H223.374C222.757 51.4163 222.256 51.9162 222.256 52.5328C222.256 53.1494 222.757 53.6493 223.374 53.6493H225.237V55.5102C225.237 56.1268 225.737 56.6267 226.355 56.6267C226.972 56.6267 227.473 56.1268 227.473 55.5102V53.6493H229.336C229.953 53.6493 230.453 53.1494 230.453 52.5328C230.453 51.9162 229.953 51.4163 229.336 51.4163Z" fill="#F4F4F4"/>
<path d="M244.143 49.3372C244.005 48.678 243.351 48.3002 242.722 48.4872C242.077 48.6971 241.813 49.3357 241.978 49.8791C242.183 50.518 242.824 50.7901 243.371 50.6235C243.95 50.4391 244.247 49.8891 244.143 49.3372Z" fill="#F4F4F4"/>
<path d="M246.028 51.4163C245.411 51.4163 244.91 51.9162 244.91 52.5328V52.6072C244.91 53.2238 245.411 53.7237 246.028 53.7237C246.645 53.7237 247.146 53.2238 247.146 52.6072V52.5328C247.146 51.9161 246.645 51.4163 246.028 51.4163Z" fill="#F4F4F4"/>
<path d="M240.066 51.4163C239.449 51.4163 238.949 51.9162 238.949 52.5328V52.6072C238.949 53.2238 239.449 53.7237 240.066 53.7237C240.684 53.7237 241.184 53.2238 241.184 52.6072V52.5328C241.184 51.9161 240.684 51.4163 240.066 51.4163Z" fill="#F4F4F4"/>
<path d="M244.143 55.2921C244.005 54.6329 243.351 54.2551 242.722 54.4421C242.08 54.6511 241.813 55.2821 241.978 55.8348C242.191 56.487 242.834 56.7418 243.371 56.5784C243.948 56.3947 244.247 55.8459 244.143 55.2921Z" fill="#F4F4F4"/>
<path d="M231.803 38.9194C231.366 39.3554 231.366 40.0623 231.803 40.4984C232.239 40.9344 232.947 40.9344 233.384 40.4984C234.112 39.7712 235.29 39.771 236.018 40.4984C236.455 40.9344 237.162 40.9344 237.599 40.4984C238.036 40.0623 238.036 39.3554 237.599 38.9194C236.001 37.3231 233.401 37.3232 231.803 38.9194Z" fill="#F4F4F4"/>
<path d="M230.011 37.1298C232.603 34.5408 236.799 34.5404 239.391 37.1298C239.827 37.5658 240.535 37.5658 240.972 37.1298C241.408 36.6937 241.408 35.9868 240.972 35.5508C237.506 32.0892 231.896 32.0887 228.43 35.5508C227.994 35.9868 227.994 36.6937 228.43 37.1298C228.867 37.5658 229.575 37.5658 230.011 37.1298Z" fill="#F4F4F4"/>
</g>
<g filter="url(#filter3_ddddii_7_23)">
<ellipse cx="326.957" cy="53" rx="38.0435" ry="38" fill="url(#paint3_linear_7_23)"/>
</g>
<g clip-path="url(#clip3_7_23)">
<path d="M327.754 56.6144H324.03V52.8944C324.03 52.2795 323.531 51.7811 322.916 51.7811C322.3 51.7811 321.801 52.2795 321.801 52.8944V56.6144H318.077C317.461 56.6144 316.962 57.1129 316.962 57.7277C316.962 58.3425 317.461 58.841 318.077 58.841H321.801V62.5611C321.801 63.1759 322.3 63.6744 322.916 63.6744C323.531 63.6744 324.03 63.1759 324.03 62.5611V58.841H327.754C328.37 58.841 328.869 58.3425 328.869 57.7277C328.869 57.1129 328.37 56.6144 327.754 56.6144Z" fill="#F4F4F4"/>
<path d="M346.441 55.4411L346.057 55.0573C344.2 53.2024 341.183 53.1277 339.239 54.9258C339.106 55.0487 339.448 54.7105 335.919 58.2353V47.5426C335.919 45.8713 334.344 44.4054 332.547 44.4054H331.164V41.8819H331.899C333.09 41.8819 334.136 40.8583 334.136 39.6914V35.382C334.136 34.2812 333.179 33.0499 331.899 33.0499H313.934C312.653 33.0499 311.696 34.2812 311.696 35.382V39.6914C311.696 40.8583 312.742 41.8819 313.934 41.8819H314.52V44.4054H313.359C311.62 44.4054 309.839 45.8366 309.839 47.5426V67.7829C309.839 69.4317 311.582 71.05 313.359 71.05H332.547C333.026 71.05 333.512 70.9346 333.962 70.7188C335.757 71.4077 337.818 71.0031 339.212 69.611L346.441 62.3894C348.359 60.4738 348.359 57.3568 346.441 55.4411ZM340.677 56.6318C341.715 55.5899 343.427 55.5792 344.481 56.6321L344.865 57.0157C345.873 58.0233 345.916 59.6465 344.969 60.705C344.887 60.7961 345.178 60.5021 342.121 63.5564L337.932 59.3731L340.677 56.6318ZM324.031 39.6554V35.2764H326.769V39.6554H324.031ZM318.884 39.6554V35.2764H321.801V39.6554H318.884ZM331.907 35.405V39.6337C331.872 39.6674 332.089 39.6554 328.998 39.6554V35.2764H331.818C331.854 35.3091 331.894 35.3662 331.907 35.405ZM313.925 39.6337V35.405C313.938 35.3663 313.978 35.3091 314.014 35.2764H316.655V39.6554C313.77 39.6554 313.96 39.6673 313.925 39.6337ZM316.749 41.8819H328.935V44.4054H316.749V41.8819ZM312.068 67.7829V47.5426C312.068 47.2162 312.719 46.6319 313.359 46.6319H332.547C333.125 46.6319 333.69 47.1534 333.69 47.5426V60.462L331.871 62.2789C330.083 64.0653 329.963 66.8961 331.51 68.8234H313.359C312.752 68.8234 312.068 68.1446 312.068 67.7829ZM337.635 68.0365C336.583 69.0875 334.881 69.0851 333.832 68.0365L333.447 67.6527C332.396 66.6029 332.396 64.9033 333.447 63.8533C335.962 61.3418 333.737 63.5637 336.356 60.9475L340.544 65.1308L337.635 68.0365Z" fill="#F4F4F4"/>
</g>
<defs>
<filter id="filter0_ddddii_7_23" x="0" y="0" width="109.087" height="109" filterUnits="userSpaceOnUse" color-interpolation-filters="sRGB">
<feFlood flood-opacity="0" result="BackgroundImageFix"/>
<feColorMatrix in="SourceAlpha" type="matrix" values="0 0 0 0 0 0 0 0 0 0 0 0 0 0 0 0 0 0 127 0" result="hardAlpha"/>
<feOffset dx="5" dy="5"/>
<feGaussianBlur stdDeviation="6.5"/>
<feColorMatrix type="matrix" values="0 0 0 0 0.517647 0 0 0 0 0.486275 0 0 0 0 0.811765 0 0 0 0.9 0"/>
<feBlend mode="normal" in2="BackgroundImageFix" result="effect1_dropShadow_7_23"/>
<feColorMatrix in="SourceAlpha" type="matrix" values="0 0 0 0 0 0 0 0 0 0 0 0 0 0 0 0 0 0 127 0" result="hardAlpha"/>
<feOffset dx="-5" dy="-5"/>
<feGaussianBlur stdDeviation="5"/>
<feColorMatrix type="matrix" values="0 0 0 0 0.713726 0 0 0 0 0.67451 0 0 0 0 1 0 0 0 0.9 0"/>
<feBlend mode="normal" in2="effect1_dropShadow_7_23" result="effect2_dropShadow_7_23"/>
<feColorMatrix in="SourceAlpha" type="matrix" values="0 0 0 0 0 0 0 0 0 0 0 0 0 0 0 0 0 0 127 0" result="hardAlpha"/>
<feOffset dx="5" dy="-5"/>
<feGaussianBlur stdDeviation="5"/>
<feColorMatrix type="matrix" values="0 0 0 0 0.517647 0 0 0 0 0.486275 0 0 0 0 0.811765 0 0 0 0.2 0"/>
<feBlend mode="normal" in2="effect2_dropShadow_7_23" result="effect3_dropShadow_7_23"/>
<feColorMatrix in="SourceAlpha" type="matrix" values="0 0 0 0 0 0 0 0 0 0 0 0 0 0 0 0 0 0 127 0" result="hardAlpha"/>
<feOffset dx="-5" dy="5"/>
<feGaussianBlur stdDeviation="5"/>
<feColorMatrix type="matrix" values="0 0 0 0 0.517647 0 0 0 0 0.486275 0 0 0 0 0.811765 0 0 0 0.2 0"/>
<feBlend mode="normal" in2="effect3_dropShadow_7_23" result="effect4_dropShadow_7_23"/>
<feBlend mode="normal" in="SourceGraphic" in2="effect4_dropShadow_7_23" result="shape"/>
<feColorMatrix in="SourceAlpha" type="matrix" values="0 0 0 0 0 0 0 0 0 0 0 0 0 0 0 0 0 0 127 0" result="hardAlpha"/>
<feOffset dx="-1" dy="-1"/>
<feGaussianBlur stdDeviation="1"/>
<feComposite in2="hardAlpha" operator="arithmetic" k2="-1" k3="1"/>
<feColorMatrix type="matrix" values="0 0 0 0 0.517647 0 0 0 0 0.486275 0 0 0 0 0.811765 0 0 0 0.5 0"/>
<feBlend mode="normal" in2="shape" result="effect5_innerShadow_7_23"/>
<feColorMatrix in="SourceAlpha" type="matrix" values="0 0 0 0 0 0 0 0 0 0 0 0 0 0 0 0 0 0 127 0" result="hardAlpha"/>
<feOffset dx="1" dy="1"/>
<feGaussianBlur stdDeviation="1"/>
<feComposite in2="hardAlpha" operator="arithmetic" k2="-1" k3="1"/>
<feColorMatrix type="matrix" values="0 0 0 0 0.713726 0 0 0 0 0.67451 0 0 0 0 1 0 0 0 0.3 0"/>
<feBlend mode="normal" in2="effect5_innerShadow_7_23" result="effect6_innerShadow_7_23"/>
</filter>
<filter id="filter1_ddddii_7_23" x="91.3044" y="0" width="109.087" height="109" filterUnits="userSpaceOnUse" color-interpolation-filters="sRGB">
<feFlood flood-opacity="0" result="BackgroundImageFix"/>
<feColorMatrix in="SourceAlpha" type="matrix" values="0 0 0 0 0 0 0 0 0 0 0 0 0 0 0 0 0 0 127 0" result="hardAlpha"/>
<feOffset dx="5" dy="5"/>
<feGaussianBlur stdDeviation="6.5"/>
<feColorMatrix type="matrix" values="0 0 0 0 0.517647 0 0 0 0 0.486275 0 0 0 0 0.811765 0 0 0 0.9 0"/>
<feBlend mode="normal" in2="BackgroundImageFix" result="effect1_dropShadow_7_23"/>
<feColorMatrix in="SourceAlpha" type="matrix" values="0 0 0 0 0 0 0 0 0 0 0 0 0 0 0 0 0 0 127 0" result="hardAlpha"/>
<feOffset dx="-5" dy="-5"/>
<feGaussianBlur stdDeviation="5"/>
<feColorMatrix type="matrix" values="0 0 0 0 0.713726 0 0 0 0 0.67451 0 0 0 0 1 0 0 0 0.9 0"/>
<feBlend mode="normal" in2="effect1_dropShadow_7_23" result="effect2_dropShadow_7_23"/>
<feColorMatrix in="SourceAlpha" type="matrix" values="0 0 0 0 0 0 0 0 0 0 0 0 0 0 0 0 0 0 127 0" result="hardAlpha"/>
<feOffset dx="5" dy="-5"/>
<feGaussianBlur stdDeviation="5"/>
<feColorMatrix type="matrix" values="0 0 0 0 0.517647 0 0 0 0 0.486275 0 0 0 0 0.811765 0 0 0 0.2 0"/>
<feBlend mode="normal" in2="effect2_dropShadow_7_23" result="effect3_dropShadow_7_23"/>
<feColorMatrix in="SourceAlpha" type="matrix" values="0 0 0 0 0 0 0 0 0 0 0 0 0 0 0 0 0 0 127 0" result="hardAlpha"/>
<feOffset dx="-5" dy="5"/>
<feGaussianBlur stdDeviation="5"/>
<feColorMatrix type="matrix" values="0 0 0 0 0.517647 0 0 0 0 0.486275 0 0 0 0 0.811765 0 0 0 0.2 0"/>
<feBlend mode="normal" in2="effect3_dropShadow_7_23" result="effect4_dropShadow_7_23"/>
<feBlend mode="normal" in="SourceGraphic" in2="effect4_dropShadow_7_23" result="shape"/>
<feColorMatrix in="SourceAlpha" type="matrix" values="0 0 0 0 0 0 0 0 0 0 0 0 0 0 0 0 0 0 127 0" result="hardAlpha"/>
<feOffset dx="-1" dy="-1"/>
<feGaussianBlur stdDeviation="1"/>
<feComposite in2="hardAlpha" operator="arithmetic" k2="-1" k3="1"/>
<feColorMatrix type="matrix" values="0 0 0 0 0.517647 0 0 0 0 0.486275 0 0 0 0 0.811765 0 0 0 0.5 0"/>
<feBlend mode="normal" in2="shape" result="effect5_innerShadow_7_23"/>
<feColorMatrix in="SourceAlpha" type="matrix" values="0 0 0 0 0 0 0 0 0 0 0 0 0 0 0 0 0 0 127 0" result="hardAlpha"/>
<feOffset dx="1" dy="1"/>
<feGaussianBlur stdDeviation="1"/>
<feComposite in2="hardAlpha" operator="arithmetic" k2="-1" k3="1"/>
<feColorMatrix type="matrix" values="0 0 0 0 0.713726 0 0 0 0 0.67451 0 0 0 0 1 0 0 0 0.3 0"/>
<feBlend mode="normal" in2="effect5_innerShadow_7_23" result="effect6_innerShadow_7_23"/>
</filter>
<filter id="filter2_ddddii_7_23" x="182.609" y="0" width="109.087" height="109" filterUnits="userSpaceOnUse" color-interpolation-filters="sRGB">
<feFlood flood-opacity="0" result="BackgroundImageFix"/>
<feColorMatrix in="SourceAlpha" type="matrix" values="0 0 0 0 0 0 0 0 0 0 0 0 0 0 0 0 0 0 127 0" result="hardAlpha"/>
<feOffset dx="5" dy="5"/>
<feGaussianBlur stdDeviation="6.5"/>
<feColorMatrix type="matrix" values="0 0 0 0 0.517647 0 0 0 0 0.486275 0 0 0 0 0.811765 0 0 0 0.9 0"/>
<feBlend mode="normal" in2="BackgroundImageFix" result="effect1_dropShadow_7_23"/>
<feColorMatrix in="SourceAlpha" type="matrix" values="0 0 0 0 0 0 0 0 0 0 0 0 0 0 0 0 0 0 127 0" result="hardAlpha"/>
<feOffset dx="-5" dy="-5"/>
<feGaussianBlur stdDeviation="5"/>
<feColorMatrix type="matrix" values="0 0 0 0 0.713726 0 0 0 0 0.67451 0 0 0 0 1 0 0 0 0.9 0"/>
<feBlend mode="normal" in2="effect1_dropShadow_7_23" result="effect2_dropShadow_7_23"/>
<feColorMatrix in="SourceAlpha" type="matrix" values="0 0 0 0 0 0 0 0 0 0 0 0 0 0 0 0 0 0 127 0" result="hardAlpha"/>
<feOffset dx="5" dy="-5"/>
<feGaussianBlur stdDeviation="5"/>
<feColorMatrix type="matrix" values="0 0 0 0 0.517647 0 0 0 0 0.486275 0 0 0 0 0.811765 0 0 0 0.2 0"/>
<feBlend mode="normal" in2="effect2_dropShadow_7_23" result="effect3_dropShadow_7_23"/>
<feColorMatrix in="SourceAlpha" type="matrix" values="0 0 0 0 0 0 0 0 0 0 0 0 0 0 0 0 0 0 127 0" result="hardAlpha"/>
<feOffset dx="-5" dy="5"/>
<feGaussianBlur stdDeviation="5"/>
<feColorMatrix type="matrix" values="0 0 0 0 0.517647 0 0 0 0 0.486275 0 0 0 0 0.811765 0 0 0 0.2 0"/>
<feBlend mode="normal" in2="effect3_dropShadow_7_23" result="effect4_dropShadow_7_23"/>
<feBlend mode="normal" in="SourceGraphic" in2="effect4_dropShadow_7_23" result="shape"/>
<feColorMatrix in="SourceAlpha" type="matrix" values="0 0 0 0 0 0 0 0 0 0 0 0 0 0 0 0 0 0 127 0" result="hardAlpha"/>
<feOffset dx="-1" dy="-1"/>
<feGaussianBlur stdDeviation="1"/>
<feComposite in2="hardAlpha" operator="arithmetic" k2="-1" k3="1"/>
<feColorMatrix type="matrix" values="0 0 0 0 0.517647 0 0 0 0 0.486275 0 0 0 0 0.811765 0 0 0 0.5 0"/>
<feBlend mode="normal" in2="shape" result="effect5_innerShadow_7_23"/>
<feColorMatrix in="SourceAlpha" type="matrix" values="0 0 0 0 0 0 0 0 0 0 0 0 0 0 0 0 0 0 127 0" result="hardAlpha"/>
<feOffset dx="1" dy="1"/>
<feGaussianBlur stdDeviation="1"/>
<feComposite in2="hardAlpha" operator="arithmetic" k2="-1" k3="1"/>
<feColorMatrix type="matrix" values="0 0 0 0 0.713726 0 0 0 0 0.67451 0 0 0 0 1 0 0 0 0.3 0"/>
<feBlend mode="normal" in2="effect5_innerShadow_7_23" result="effect6_innerShadow_7_23"/>
</filter>
<filter id="filter3_ddddii_7_23" x="273.913" y="0" width="109.087" height="109" filterUnits="userSpaceOnUse" color-interpolation-filters="sRGB">
<feFlood flood-opacity="0" result="BackgroundImageFix"/>
<feColorMatrix in="SourceAlpha" type="matrix" values="0 0 0 0 0 0 0 0 0 0 0 0 0 0 0 0 0 0 127 0" result="hardAlpha"/>
<feOffset dx="5" dy="5"/>
<feGaussianBlur stdDeviation="6.5"/>
<feColorMatrix type="matrix" values="0 0 0 0 0.517647 0 0 0 0 0.486275 0 0 0 0 0.811765 0 0 0 0.9 0"/>
<feBlend mode="normal" in2="BackgroundImageFix" result="effect1_dropShadow_7_23"/>
<feColorMatrix in="SourceAlpha" type="matrix" values="0 0 0 0 0 0 0 0 0 0 0 0 0 0 0 0 0 0 127 0" result="hardAlpha"/>
<feOffset dx="-5" dy="-5"/>
<feGaussianBlur stdDeviation="5"/>
<feColorMatrix type="matrix" values="0 0 0 0 0.713726 0 0 0 0 0.67451 0 0 0 0 1 0 0 0 0.9 0"/>
<feBlend mode="normal" in2="effect1_dropShadow_7_23" result="effect2_dropShadow_7_23"/>
<feColorMatrix in="SourceAlpha" type="matrix" values="0 0 0 0 0 0 0 0 0 0 0 0 0 0 0 0 0 0 127 0" result="hardAlpha"/>
<feOffset dx="5" dy="-5"/>
<feGaussianBlur stdDeviation="5"/>
<feColorMatrix type="matrix" values="0 0 0 0 0.517647 0 0 0 0 0.486275 0 0 0 0 0.811765 0 0 0 0.2 0"/>
<feBlend mode="normal" in2="effect2_dropShadow_7_23" result="effect3_dropShadow_7_23"/>
<feColorMatrix in="SourceAlpha" type="matrix" values="0 0 0 0 0 0 0 0 0 0 0 0 0 0 0 0 0 0 127 0" result="hardAlpha"/>
<feOffset dx="-5" dy="5"/>
<feGaussianBlur stdDeviation="5"/>
<feColorMatrix type="matrix" values="0 0 0 0 0.517647 0 0 0 0 0.486275 0 0 0 0 0.811765 0 0 0 0.2 0"/>
<feBlend mode="normal" in2="effect3_dropShadow_7_23" result="effect4_dropShadow_7_23"/>
<feBlend mode="normal" in="SourceGraphic" in2="effect4_dropShadow_7_23" result="shape"/>
<feColorMatrix in="SourceAlpha" type="matrix" values="0 0 0 0 0 0 0 0 0 0 0 0 0 0 0 0 0 0 127 0" result="hardAlpha"/>
<feOffset dx="-1" dy="-1"/>
<feGaussianBlur stdDeviation="1"/>
<feComposite in2="hardAlpha" operator="arithmetic" k2="-1" k3="1"/>
<feColorMatrix type="matrix" values="0 0 0 0 0.517647 0 0 0 0 0.486275 0 0 0 0 0.811765 0 0 0 0.5 0"/>
<feBlend mode="normal" in2="shape" result="effect5_innerShadow_7_23"/>
<feColorMatrix in="SourceAlpha" type="matrix" values="0 0 0 0 0 0 0 0 0 0 0 0 0 0 0 0 0 0 127 0" result="hardAlpha"/>
<feOffset dx="1" dy="1"/>
<feGaussianBlur stdDeviation="1"/>
<feComposite in2="hardAlpha" operator="arithmetic" k2="-1" k3="1"/>
<feColorMatrix type="matrix" values="0 0 0 0 0.713726 0 0 0 0 0.67451 0 0 0 0 1 0 0 0 0.3 0"/>
<feBlend mode="normal" in2="effect5_innerShadow_7_23" result="effect6_innerShadow_7_23"/>
</filter>
<linearGradient id="paint0_linear_7_23" x1="15" y1="15" x2="91" y2="91.0869" gradientUnits="userSpaceOnUse">
<stop stop-color="#A59BFF"/>
<stop offset="1" stop-color="#958DEE"/>
</linearGradient>
<linearGradient id="paint1_linear_7_23" x1="106.304" y1="15" x2="182.304" y2="91.0869" gradientUnits="userSpaceOnUse">
<stop stop-color="#A59BFF"/>
<stop offset="1" stop-color="#958DEE"/>
</linearGradient>
<linearGradient id="paint2_linear_7_23" x1="197.609" y1="15" x2="273.609" y2="91.0869" gradientUnits="userSpaceOnUse">
<stop stop-color="#A59BFF"/>
<stop offset="1" stop-color="#958DEE"/>
</linearGradient>
<linearGradient id="paint3_linear_7_23" x1="288.913" y1="15" x2="364.913" y2="91.0869" gradientUnits="userSpaceOnUse">
<stop stop-color="#A59BFF"/>
<stop offset="1" stop-color="#958DEE"/>
</linearGradient>
<clipPath id="clip0_7_23">
<rect width="38.0435" height="38" fill="white" transform="translate(32.1196 32.1)"/>
</clipPath>
<clipPath id="clip1_7_23">
<rect width="38.0435" height="38" fill="white" transform="translate(123.424 32.1)"/>
</clipPath>
<clipPath id="clip2_7_23">
<rect width="38.0435" height="38" fill="white" transform="translate(215.679 31.15)"/>
</clipPath>
<clipPath id="clip3_7_23">
<rect width="38.0435" height="38.0001" fill="white" transform="translate(309.837 33.0499)"/>
</clipPath>
</defs>
</svg>
