<svg width="40" height="30" viewBox="97 6 36 32" fill="none" xmlns="http://www.w3.org/2000/svg">
<path fill-rule="evenodd" clip-rule="evenodd" d="M115.391 12.5664C117.154 10.2853 119.968 8.85827 123.106 9.01118L123.013 10.9196L123.106 9.01118C128.967 9.29682 132.591 14.9579 131.628 20.3613C130.844 24.7619 127.799 28.2929 124.834 30.8106C121.831 33.361 118.645 35.0957 117.123 35.8574L117.123 35.8574C116.032 36.4032 114.75 36.4032 113.659 35.8574L113.659 35.8574C112.137 35.0957 108.951 33.361 105.948 30.8106C102.983 28.2929 99.9384 24.7619 99.1544 20.3613L99.1544 20.3612C98.1918 14.9579 101.815 9.29682 107.676 9.01118L107.676 9.01118C110.814 8.85832 113.628 10.2854 115.391 12.5664ZM122.92 12.828C119.882 12.68 117.368 15.0639 117.303 18.0512L117.303 18.0515C117.301 18.1405 117.292 18.3227 117.229 18.5424C117.201 18.6405 117.129 18.8639 116.961 19.106C116.828 19.2973 116.328 19.9273 115.391 19.9273C114.45 19.9273 113.95 19.293 113.816 19.0983C113.648 18.8538 113.578 18.6285 113.55 18.53C113.491 18.3175 113.481 18.1402 113.479 18.048C113.479 18.0444 113.479 18.041 113.479 18.0377L115.389 18.01L113.479 18.0512C113.479 18.0501 113.479 18.0491 113.479 18.048C113.413 15.0622 110.899 12.6801 107.862 12.828L107.769 10.9196L107.862 12.828C104.673 12.9835 102.29 16.1741 102.917 19.691C103.469 22.7916 105.708 25.5936 108.421 27.8979C111.096 30.1693 113.981 31.7453 115.369 32.44C115.384 32.4471 115.399 32.4471 115.413 32.44C116.801 31.7453 119.686 30.1693 122.361 27.8979C125.074 25.5936 127.313 22.7916 127.866 19.691C128.492 16.1741 126.109 12.9835 122.92 12.828Z" fill="#FF1744"/>
<path d="M123.7081 9.01031C118.9164 8.77681 114.9475 12.5404 114.8458 17.2564C114.8455 17.2667 114.8419 17.2667 114.8418 17.2564C114.7401 12.5404 110.7712 8.77688 105.9795 9.01031C100.7169 9.26679 97.2241 14.414 98.1482 19.6011C99.7024 28.3251 110.4393 34.3317 113.8241 36.0256C114.4665 36.3471 115.221 36.3471 115.8635 36.0256C119.2483 34.3317 129.9851 28.3251 131.5393 19.6011C132.4634 14.414 128.9706 9.26679 123.7081 9.01031V9.01031Z" fill="#FF1744"/>
</svg>