<svg width="278" height="53" viewBox="0 0 278 53" fill="none" xmlns="http://www.w3.org/2000/svg">
<path d="M20 0.5H258C268.77 0.5 277.5 9.23045 277.5 20V52.5H20C9.23045 52.5 0.5 43.7696 0.5 33V20C0.5 9.3986 8.95996 0.773603 19.4971 0.506836L20 0.5Z" fill="#F4E9F4"/>
<path d="M20 0.5H258C268.77 0.5 277.5 9.23045 277.5 20V52.5H20C9.23045 52.5 0.5 43.7696 0.5 33V20C0.5 9.3986 8.95996 0.773603 19.4971 0.506836L20 0.5Z" stroke="black"/>
<path d="M17.362 21.71H18.986V22.102C18.986 22.55 18.9113 22.984 18.762 23.404C18.622 23.824 18.4073 24.216 18.118 24.58C17.8287 24.9347 17.474 25.2567 17.054 25.546C16.6433 25.826 16.1673 26.064 15.626 26.26C15.0847 26.456 14.4827 26.596 13.82 26.68L13.134 25.238C13.7127 25.1633 14.226 25.0513 14.674 24.902C15.1313 24.7433 15.528 24.5613 15.864 24.356C16.2 24.1413 16.48 23.9127 16.704 23.67C16.928 23.4273 17.0913 23.1707 17.194 22.9C17.306 22.6293 17.362 22.3633 17.362 22.102V21.71ZM17.908 21.71H19.518V22.102C19.518 22.3633 19.5693 22.6293 19.672 22.9C19.784 23.1707 19.952 23.4273 20.176 23.67C20.4 23.9127 20.68 24.1413 21.016 24.356C21.3613 24.5613 21.758 24.7433 22.206 24.902C22.654 25.0513 23.1673 25.1633 23.746 25.238L23.06 26.68C22.3973 26.596 21.7953 26.456 21.254 26.26C20.7127 26.064 20.232 25.826 19.812 25.546C19.4013 25.2567 19.0513 24.9347 18.762 24.58C18.482 24.216 18.2673 23.824 18.118 23.404C17.978 22.984 17.908 22.55 17.908 22.102V21.71ZM17.46 28.5H19.322V33.246H17.46V28.5ZM12.574 27.422H24.306V28.92H12.574V27.422ZM13.61 20.94H23.228V22.41H13.61V20.94ZM34.3569 20.282H36.2189V29.592H34.3569V20.282ZM27.5809 31.524H36.5549V33.022H27.5809V31.524ZM27.5809 28.668H29.4429V32.14H27.5809V28.668ZM29.1629 21.108C29.8256 21.108 30.4229 21.248 30.9549 21.528C31.4869 21.808 31.9069 22.1953 32.2149 22.69C32.5322 23.1847 32.6909 23.754 32.6909 24.398C32.6909 25.0233 32.5322 25.588 32.2149 26.092C31.9069 26.5867 31.4869 26.9787 30.9549 27.268C30.4229 27.548 29.8256 27.688 29.1629 27.688C28.5002 27.688 27.9029 27.548 27.3709 27.268C26.8389 26.9787 26.4142 26.5867 26.0969 26.092C25.7889 25.588 25.6349 25.0233 25.6349 24.398C25.6349 23.754 25.7889 23.1847 26.0969 22.69C26.4142 22.1953 26.8389 21.808 27.3709 21.528C27.9029 21.248 28.5002 21.108 29.1629 21.108ZM29.1629 22.704C28.8456 22.704 28.5562 22.774 28.2949 22.914C28.0336 23.0447 27.8282 23.236 27.6789 23.488C27.5296 23.7307 27.4549 24.034 27.4549 24.398C27.4549 24.7433 27.5296 25.042 27.6789 25.294C27.8282 25.5367 28.0336 25.728 28.2949 25.868C28.5562 25.9987 28.8456 26.064 29.1629 26.064C29.4802 26.064 29.7696 25.9987 30.0309 25.868C30.2922 25.728 30.4976 25.5367 30.6469 25.294C30.7962 25.042 30.8709 24.7433 30.8709 24.398C30.8709 24.034 30.7962 23.7307 30.6469 23.488C30.4976 23.236 30.2922 23.0447 30.0309 22.914C29.7696 22.774 29.4802 22.704 29.1629 22.704ZM47.2358 20.268H49.0978V27.534H47.2358V20.268ZM39.0598 21.024H40.9078V26.358H39.0598V21.024ZM39.0598 25.378H40.1798C41.3091 25.378 42.3498 25.3453 43.3018 25.28C44.2631 25.2053 45.2198 25.0607 46.1718 24.846L46.3958 26.344C45.4065 26.568 44.4125 26.722 43.4138 26.806C42.4245 26.8807 41.3465 26.918 40.1798 26.918H39.0598V25.378ZM40.4738 28.08H49.0978V33.106H40.4738V28.08ZM47.2778 29.55H42.2938V31.636H47.2778V29.55ZM54.815 21.43H56.565V24.342H58.203V21.43H59.925V30.166H54.815V21.43ZM56.565 25.784V28.682H58.203V25.784H56.565ZM63.803 20.268H65.581V33.232H63.803V20.268ZM62.221 25.224H64.363V26.708H62.221V25.224ZM60.975 20.478H62.711V32.658H60.975V20.478ZM68.5339 21.374H76.7379V22.858H68.5339V21.374ZM67.3299 30.166H79.0619V31.678H67.3299V30.166ZM71.4739 25.714H73.3499V30.922H71.4739V25.714ZM76.0659 21.374H77.9419V22.606C77.9419 23.1473 77.9325 23.7213 77.9139 24.328C77.9045 24.9347 77.8625 25.6067 77.7879 26.344C77.7225 27.0813 77.6012 27.9073 77.4239 28.822L75.5619 28.626C75.8232 27.3287 75.9725 26.1993 76.0099 25.238C76.0472 24.2673 76.0659 23.39 76.0659 22.606V21.374ZM80.3768 21.472H87.5308V22.942H80.3768V21.472ZM80.2368 30.278L80.0408 28.766C80.7874 28.766 81.6041 28.7613 82.4908 28.752C83.3868 28.7333 84.2968 28.7007 85.2208 28.654C86.1541 28.598 87.0501 28.5187 87.9088 28.416L88.0068 29.76C87.1294 29.9093 86.2288 30.0213 85.3048 30.096C84.3901 30.1707 83.4988 30.222 82.6308 30.25C81.7721 30.2687 80.9741 30.278 80.2368 30.278ZM81.4828 22.634H83.2888V29.172H81.4828V22.634ZM84.6188 22.634H86.4108V29.172H84.6188V22.634ZM88.4828 20.282H90.3588V33.246H88.4828V20.282ZM89.9528 25.182H92.2348V26.722H89.9528V25.182ZM95.6637 26.862H97.5257V30.488H95.6637V26.862ZM100.368 26.862H102.23V30.488H100.368V26.862ZM93.0877 30.222H104.834V31.734H93.0877V30.222ZM98.9397 20.912C99.873 20.912 100.704 21.0567 101.432 21.346C102.169 21.6353 102.743 22.0413 103.154 22.564C103.574 23.0773 103.784 23.6887 103.784 24.398C103.784 25.098 103.574 25.7093 103.154 26.232C102.743 26.7453 102.169 27.1467 101.432 27.436C100.704 27.7253 99.873 27.87 98.9397 27.87C98.0157 27.87 97.185 27.7253 96.4477 27.436C95.7197 27.1467 95.1457 26.7453 94.7257 26.232C94.3057 25.7093 94.0957 25.098 94.0957 24.398C94.0957 23.6887 94.3057 23.0773 94.7257 22.564C95.1457 22.0413 95.7197 21.6353 96.4477 21.346C97.185 21.0567 98.0157 20.912 98.9397 20.912ZM98.9397 22.354C98.3423 22.354 97.815 22.438 97.3577 22.606C96.9097 22.7647 96.5597 22.9933 96.3077 23.292C96.0557 23.5907 95.9297 23.9593 95.9297 24.398C95.9297 24.818 96.0557 25.182 96.3077 25.49C96.5597 25.7887 96.9097 26.022 97.3577 26.19C97.815 26.3487 98.3423 26.428 98.9397 26.428C99.5463 26.428 100.074 26.3487 100.522 26.19C100.979 26.022 101.329 25.7887 101.572 25.49C101.824 25.182 101.95 24.818 101.95 24.398C101.95 23.9593 101.824 23.5907 101.572 23.292C101.329 22.9933 100.979 22.7647 100.522 22.606C100.074 22.438 99.5463 22.354 98.9397 22.354ZM108.768 21.8182L108.574 28.9474H106.755L106.556 21.8182H108.768ZM107.665 32.1293C107.336 32.1293 107.055 32.0133 106.819 31.7812C106.584 31.5459 106.468 31.2642 106.471 30.9361C106.468 30.6113 106.584 30.3329 106.819 30.1009C107.055 29.8688 107.336 29.7528 107.665 29.7528C107.979 29.7528 108.256 29.8688 108.495 30.1009C108.733 30.3329 108.854 30.6113 108.858 30.9361C108.854 31.1548 108.796 31.3554 108.684 31.5376C108.574 31.7166 108.43 31.8608 108.251 31.9702C108.072 32.0762 107.877 32.1293 107.665 32.1293Z" fill="#6B5F07"/>
</svg>
